<svg width="820" height="726" viewBox="0 0 820 726" fill="none" xmlns="http://www.w3.org/2000/svg">
<g clip-path="url(#clip0)">
<path d="M426.159 700.607C619.627 700.607 776.463 543.771 776.463 350.304C776.463 156.836 619.627 0 426.159 0C232.692 0 75.8555 156.836 75.8555 350.304C75.8555 543.771 232.692 700.607 426.159 700.607Z" fill="#D1CBD1"/>
<path d="M199.417 597.798C176.852 632.403 183.035 676.415 183.035 676.415C183.035 676.415 225.802 664.323 248.367 629.718C270.932 595.114 264.749 551.102 264.749 551.102C264.749 551.102 221.982 563.194 199.417 597.798Z" fill="#B199CF"/>
<path d="M182.915 676.014C182.915 676.014 182.366 675.926 181.355 675.722C180.548 675.558 179.438 675.324 178.082 675.003C165.962 672.145 133.739 662.486 112.672 637.088C86.3046 605.286 87.4149 560.855 87.4149 560.855C87.4149 560.855 127.732 567.406 154.298 595.965C155.449 597.192 156.569 598.464 157.658 599.781C180.601 627.452 182.739 664.683 182.909 673.887C182.932 675.266 182.915 676.014 182.915 676.014Z" fill="#A29EDE"/>
<path d="M164.013 603.226C190.3 635.259 183.097 676 183.097 676C183.097 676 133.274 664.806 106.987 632.774C80.6999 600.741 87.9026 560 87.9026 560C87.9026 560 137.726 571.194 164.013 603.226Z" stroke="#3F3D56" stroke-width="2" stroke-miterlimit="10"/>
<path opacity="0.1" d="M182.908 673.887C182.312 674.605 181.786 675.219 181.354 675.721C180.395 676.814 179.852 677.387 179.852 677.387C179.852 677.387 179.192 676.557 178.081 675.003C171.986 666.506 152.38 636.293 153.894 601.394C153.975 599.565 154.11 597.755 154.297 595.965C155.448 597.192 156.568 598.464 157.657 599.781C180.6 627.451 182.739 664.683 182.908 673.887Z" fill="black"/>
<path d="M216.367 603.919C214.583 645.192 183.945 677.388 183.945 677.388C183.945 677.388 156.199 642.669 157.983 601.396C159.766 560.123 190.404 527.926 190.404 527.926C190.404 527.926 218.15 562.646 216.367 603.919Z" fill="#76717C"/>
<path d="M183.945 676.22L190.681 529.609" stroke="#3F3D56" stroke-width="2" stroke-miterlimit="10"/>
<path d="M410 725.173C636.437 725.173 820 710.188 820 691.704C820 673.219 636.437 658.234 410 658.234C183.563 658.234 0 673.219 0 691.704C0 710.188 183.563 725.173 410 725.173Z" fill="#3F3D56"/>
<path d="M475.161 290.142C464.939 293.594 455.679 301.668 453.585 312.252C452.615 317.158 453.21 322.259 452.394 327.193C450.5 338.636 441.517 347.375 433.233 355.492C424.948 363.61 416.392 373.042 415.788 384.625C415.125 397.308 424.324 409.191 422.732 421.792C420.883 436.431 405.421 445.917 401.598 460.169C399.046 469.686 402.174 479.938 407.319 488.34C417.125 504.353 433.886 515.223 451.734 521.051C469.583 526.879 488.593 528.105 507.368 528.301C530.229 528.541 555.05 526.578 572.226 511.49C582.037 502.795 588.199 490.712 589.476 477.664C591.107 460.187 583.813 442.128 588.844 425.312C592.011 414.728 599.952 405.063 598.767 394.08C597.608 383.341 588.229 375.729 581.795 367.053C575.787 358.953 572.141 349.388 568.569 339.957L556.344 307.689C553.941 301.346 551.302 294.675 545.947 290.511C535.921 282.717 519.799 284.249 508.076 285.856C497.2 287.347 485.62 286.61 475.161 290.142Z" fill="#2F2E41"/>
<path d="M478.99 384.138C478.99 384.138 484.409 401.75 443.766 422.071C403.123 442.393 447.83 464.069 447.83 464.069L495.247 474.907C495.247 474.907 544.019 468.133 549.438 460.005C554.857 451.876 564.341 424.781 561.631 420.716C559.604 417.823 557.338 415.104 554.857 412.588C554.857 412.588 522.343 407.169 523.698 392.266C525.052 377.364 478.99 384.138 478.99 384.138Z" fill="#FFB9B9"/>
<path opacity="0.1" d="M478.99 384.138C478.99 384.138 484.409 401.75 443.766 422.071C403.123 442.393 447.83 464.069 447.83 464.069L495.247 474.907C495.247 474.907 544.019 468.133 549.438 460.005C554.857 451.876 564.341 424.781 561.631 420.716C559.604 417.823 557.338 415.104 554.857 412.588C554.857 412.588 522.343 407.169 523.698 392.266C525.052 377.364 478.99 384.138 478.99 384.138Z" fill="black"/>
<path d="M505.407 411.908C529.35 411.908 548.76 392.499 548.76 368.556C548.76 344.613 529.35 325.203 505.407 325.203C481.464 325.203 462.055 344.613 462.055 368.556C462.055 392.499 481.464 411.908 505.407 411.908Z" fill="#FFB9B9"/>
<path d="M500.665 460.004C500.665 460.004 448.455 456.185 447.464 420.161C447.464 420.161 428.862 418.006 423.443 423.425C418.024 428.844 400.412 432.908 400.412 446.456C400.412 460.004 423.443 500.5 423.443 500.5C423.443 500.5 446.474 554.838 439.701 564.321C432.927 573.804 431.572 598.19 431.572 598.19C431.572 598.19 499.31 592.771 510.149 598.19C520.987 603.609 564.339 603.609 567.049 598.19C569.758 592.771 564.339 525.033 564.339 525.033C564.339 525.033 584.21 507.967 581.5 489L606.337 451.875C606.337 451.875 594.144 415.296 575.178 415.296C575.178 415.296 549.437 408.522 548.76 411.909C548.082 415.296 561.63 453.23 500.665 460.004Z" fill="#9D9BC8"/>
<path d="M378.736 579.222C378.736 579.222 390.929 598.189 422.089 602.253C453.249 606.317 458.668 595.479 455.958 592.77C453.249 590.06 420.734 577.867 420.734 577.867L401.767 562.965L378.736 579.222Z" fill="#FFB9B9"/>
<path d="M600.92 562.965L565.696 583.286C565.696 583.286 519.633 580.577 537.246 594.125C554.858 607.672 587.372 602.253 587.372 602.253L618.532 587.351L600.92 562.965Z" fill="#FFB9B9"/>
<path d="M424.799 598.191C424.799 598.191 392.285 678.123 431.573 690.316C470.861 702.509 579.243 699.799 603.629 683.542C628.015 667.285 634.789 645.608 630.724 638.835C626.66 632.061 599.565 613.094 580.598 611.739C561.631 610.384 424.799 598.191 424.799 598.191Z" fill="#2F2E41"/>
<path opacity="0.05" d="M424.799 598.191C424.799 598.191 392.285 678.123 431.573 690.316C470.861 702.509 579.243 699.799 603.629 683.542C628.015 667.285 634.789 645.608 630.724 638.835C626.66 632.061 599.565 613.094 580.598 611.739C561.631 610.384 424.799 598.191 424.799 598.191Z" fill="black"/>
<path d="M578.278 603.158C578.278 603.158 693.044 561.613 691.69 611.74C690.335 661.866 618.532 675.414 618.532 675.414L596.856 678.124L477.636 682.188C477.636 682.188 481.7 660.512 472.217 657.802C472.217 657.802 503.377 649.674 504.731 648.319C506.086 646.964 583.308 619.869 588.727 618.514C594.146 617.159 610.403 606.321 622.596 607.676C622.596 607.676 636.144 596.837 651.047 599.547L609.049 602.257L578.278 603.158Z" fill="#2F2E41"/>
<path opacity="0.1" d="M578.278 603.158C578.278 603.158 693.044 561.613 691.69 611.74C690.335 661.866 618.532 675.414 618.532 675.414L596.856 678.124L477.636 682.188C477.636 682.188 481.7 660.512 472.217 657.802C472.217 657.802 503.377 649.674 504.731 648.319C506.086 646.964 583.308 619.869 588.727 618.514C594.146 617.159 610.403 606.321 622.596 607.676C622.596 607.676 636.144 596.837 651.047 599.547L609.049 602.257L578.278 603.158Z" fill="black"/>
<path d="M558 609.885L572.469 642.898L660.529 611.738L667.303 594.126L644.272 590.062L597.97 598.19L577.888 603.61L558 609.885Z" fill="#2F2E41"/>
<path opacity="0.1" d="M558 609.885L572.469 642.898L660.529 611.738L667.303 594.126L644.272 590.062L597.97 598.19L577.888 603.61L558 609.885Z" fill="black"/>
<path d="M370.608 649.67C370.608 649.67 396.349 682.185 426.154 690.313C455.959 698.442 472.216 687.604 472.216 687.604L462.733 649.67L458.669 625.284L441.057 613.091L405.833 596.834L363.835 583.286C363.835 583.286 346.223 580.577 346.223 583.286C346.223 585.996 362.48 626.639 362.48 626.639L370.608 649.67Z" fill="#2F2E41"/>
<path d="M401.768 667.283C401.768 667.283 407.187 706.571 413.961 709.281C420.734 711.99 441.056 706.571 446.475 703.862C451.894 701.152 470.314 688.651 470.314 688.651C470.314 688.651 405.832 664.573 401.768 667.283Z" fill="#F2F2F2"/>
<path d="M525.052 671.348L550.793 675.412L548.083 706.572L512.18 697.851L525.052 671.348Z" fill="#FFB9B9"/>
<path d="M541.179 680.019C541.179 680.019 529.115 694.378 541.308 702.506L549.437 709.28C549.437 709.28 576.532 714.699 579.242 717.409C581.951 720.119 592.79 713.345 592.79 713.345C592.79 713.345 594.144 672.702 592.79 669.992C591.435 667.282 575.178 664.573 573.823 667.282C572.468 669.992 556.211 674.056 546.727 671.347L541.179 680.019Z" fill="#F2F2F2"/>
<path d="M432.928 607.675C432.928 607.675 338.094 552.13 323.192 572.451C308.289 592.773 292.032 621.223 335.384 642.899C378.737 664.576 514.214 709.283 514.214 709.283C514.214 709.283 534.536 678.123 534.536 669.995C534.536 669.995 462.733 637.48 450.54 634.771C438.347 632.061 389.575 600.901 382.801 598.192C376.028 595.482 366.544 587.354 366.544 587.354L432.928 607.675Z" fill="#2F2E41"/>
<path d="M407.44 436L402 440C402 440 389.76 470.667 388.4 488C387.04 505.333 370.72 558.667 372.08 565.333C373.44 572 374.8 577.333 382.96 584C382.96 584 393.84 560 412.88 564L436 481.333L407.44 436Z" fill="#9D9BC8"/>
<path d="M595.741 436L606.579 448.193C606.579 448.193 613.353 464.45 613.353 468.515C613.353 472.579 626.9 532.189 628.255 534.898C629.61 537.608 635.029 571.477 628.255 579.606C621.481 587.734 609.288 593.153 609.288 593.153C609.288 593.153 617.417 564.703 591.676 563.348L594.386 552.51L570 471.224L595.741 436Z" fill="#9D9BC8"/>
<path d="M408.541 532.957V604.318C408.541 608.824 410.314 613.15 413.477 616.36C416.639 619.569 420.938 621.406 425.443 621.473L574.681 623.684C579.161 623.75 583.488 622.062 586.739 618.979C589.99 615.897 591.907 611.665 592.079 607.189L594.824 535.819C594.912 533.533 594.542 531.253 593.736 529.112C592.929 526.971 591.703 525.014 590.129 523.354C588.554 521.694 586.664 520.366 584.569 519.447C582.474 518.529 580.216 518.038 577.929 518.005L425.946 515.803C423.673 515.77 421.415 516.189 419.305 517.036C417.194 517.884 415.274 519.142 413.654 520.738C412.035 522.334 410.749 524.237 409.871 526.334C408.993 528.432 408.541 530.683 408.541 532.957Z" fill="#76717C"/>
<path d="M507.95 367.169C533.722 367.169 554.615 355.919 554.615 342.041C554.615 328.164 533.722 316.914 507.95 316.914C482.178 316.914 461.285 328.164 461.285 342.041C461.285 355.919 482.178 367.169 507.95 367.169Z" fill="#2F2E41"/>
<path d="M499.989 581.254C505.974 581.254 510.827 576.402 510.827 570.416C510.827 564.431 505.974 559.578 499.989 559.578C494.003 559.578 489.15 564.431 489.15 570.416C489.15 576.402 494.003 581.254 499.989 581.254Z" fill="#F2F2F2"/>
<path d="M794.989 568.223V691.99C794.989 694.116 793.845 694.42 791.986 695.451C785.711 698.931 770.246 705.131 751.677 695.318C749.771 694.311 748.598 693.97 748.598 691.814V569.016C748.598 569.016 772.19 578.532 794.989 568.223Z" fill="#777689"/>
<path d="M771.794 573.063C784.604 573.063 794.989 570.858 794.989 568.137C794.989 565.416 784.604 563.211 771.794 563.211C758.983 563.211 748.598 565.416 748.598 568.137C748.598 570.858 758.983 573.063 771.794 573.063Z" fill="#3F3D56" stroke="#A29EDE" stroke-miterlimit="10"/>
<g opacity="0.8">
<path opacity="0.8" d="M792.876 620.135C793.163 620.135 793.396 619.902 793.396 619.614C793.396 619.327 793.163 619.094 792.876 619.094C792.588 619.094 792.355 619.327 792.355 619.614C792.355 619.902 792.588 620.135 792.876 620.135Z" fill="black"/>
<path opacity="0.8" d="M790.235 620.873C790.523 620.873 790.756 620.64 790.756 620.352C790.756 620.065 790.523 619.832 790.235 619.832C789.948 619.832 789.715 620.065 789.715 620.352C789.715 620.64 789.948 620.873 790.235 620.873Z" fill="black"/>
<path opacity="0.8" d="M786.97 621.916C787.257 621.916 787.49 621.683 787.49 621.395C787.49 621.108 787.257 620.875 786.97 620.875C786.682 620.875 786.449 621.108 786.449 621.395C786.449 621.683 786.682 621.916 786.97 621.916Z" fill="black"/>
<path opacity="0.8" d="M781.118 623.174C781.405 623.174 781.638 622.941 781.638 622.653C781.638 622.366 781.405 622.133 781.118 622.133C780.831 622.133 780.598 622.366 780.598 622.653C780.598 622.941 780.831 623.174 781.118 623.174Z" fill="black"/>
<path opacity="0.8" d="M774.946 623.924C775.234 623.924 775.467 623.691 775.467 623.403C775.467 623.116 775.234 622.883 774.946 622.883C774.659 622.883 774.426 623.116 774.426 623.403C774.426 623.691 774.659 623.924 774.946 623.924Z" fill="black"/>
<path opacity="0.8" d="M768.557 624.217C768.845 624.217 769.078 623.984 769.078 623.696C769.078 623.409 768.845 623.176 768.557 623.176C768.27 623.176 768.037 623.409 768.037 623.696C768.037 623.984 768.27 624.217 768.557 624.217Z" fill="black"/>
<path opacity="0.8" d="M759.384 622.955C759.671 622.955 759.904 622.722 759.904 622.434C759.904 622.147 759.671 621.914 759.384 621.914C759.096 621.914 758.863 622.147 758.863 622.434C758.863 622.722 759.096 622.955 759.384 622.955Z" fill="black"/>
<path opacity="0.8" d="M762.423 623.697C762.71 623.697 762.943 623.464 762.943 623.177C762.943 622.889 762.71 622.656 762.423 622.656C762.135 622.656 761.902 622.889 761.902 623.177C761.902 623.464 762.135 623.697 762.423 623.697Z" fill="black"/>
<path opacity="0.8" d="M753.706 621.916C753.993 621.916 754.226 621.683 754.226 621.395C754.226 621.108 753.993 620.875 753.706 620.875C753.419 620.875 753.186 621.108 753.186 621.395C753.186 621.683 753.419 621.916 753.706 621.916Z" fill="black"/>
<path opacity="0.8" d="M756.44 622.435C756.728 622.435 756.961 622.202 756.961 621.915C756.961 621.628 756.728 621.395 756.44 621.395C756.153 621.395 755.92 621.628 755.92 621.915C755.92 622.202 756.153 622.435 756.44 622.435Z" fill="black"/>
<path opacity="0.8" d="M750.71 620.873C750.997 620.873 751.23 620.64 751.23 620.352C751.23 620.065 750.997 619.832 750.71 619.832C750.422 619.832 750.189 620.065 750.189 620.352C750.189 620.64 750.422 620.873 750.71 620.873Z" fill="black"/>
<path opacity="0.8" d="M783.981 622.654C784.269 622.654 784.502 622.421 784.502 622.134C784.502 621.846 784.269 621.613 783.981 621.613C783.694 621.613 783.461 621.846 783.461 622.134C783.461 622.421 783.694 622.654 783.981 622.654Z" fill="black"/>
<path opacity="0.8" d="M777.942 623.697C778.23 623.697 778.463 623.464 778.463 623.177C778.463 622.889 778.23 622.656 777.942 622.656C777.655 622.656 777.422 622.889 777.422 623.177C777.422 623.464 777.655 623.697 777.942 623.697Z" fill="black"/>
<path opacity="0.8" d="M771.391 624.217C771.679 624.217 771.912 623.984 771.912 623.696C771.912 623.409 771.679 623.176 771.391 623.176C771.104 623.176 770.871 623.409 770.871 623.696C770.871 623.984 771.104 624.217 771.391 624.217Z" fill="black"/>
<path opacity="0.8" d="M765.431 624.217C765.718 624.217 765.951 623.984 765.951 623.696C765.951 623.409 765.718 623.176 765.431 623.176C765.143 623.176 764.91 623.409 764.91 623.696C764.91 623.984 765.143 624.217 765.431 624.217Z" fill="black"/>
</g>
<g opacity="0.8">
<path opacity="0.8" d="M792.876 622.697C793.163 622.697 793.396 622.464 793.396 622.177C793.396 621.889 793.163 621.656 792.876 621.656C792.588 621.656 792.355 621.889 792.355 622.177C792.355 622.464 792.588 622.697 792.876 622.697Z" fill="black"/>
<path opacity="0.8" d="M790.235 623.435C790.523 623.435 790.756 623.202 790.756 622.915C790.756 622.628 790.523 622.395 790.235 622.395C789.948 622.395 789.715 622.628 789.715 622.915C789.715 623.202 789.948 623.435 790.235 623.435Z" fill="black"/>
<path opacity="0.8" d="M786.97 624.478C787.257 624.478 787.49 624.245 787.49 623.958C787.49 623.671 787.257 623.438 786.97 623.438C786.682 623.438 786.449 623.671 786.449 623.958C786.449 624.245 786.682 624.478 786.97 624.478Z" fill="black"/>
<path opacity="0.8" d="M781.118 625.736C781.405 625.736 781.638 625.503 781.638 625.216C781.638 624.928 781.405 624.695 781.118 624.695C780.831 624.695 780.598 624.928 780.598 625.216C780.598 625.503 780.831 625.736 781.118 625.736Z" fill="black"/>
<path opacity="0.8" d="M774.946 626.486C775.234 626.486 775.467 626.253 775.467 625.966C775.467 625.678 775.234 625.445 774.946 625.445C774.659 625.445 774.426 625.678 774.426 625.966C774.426 626.253 774.659 626.486 774.946 626.486Z" fill="black"/>
<path opacity="0.8" d="M768.557 626.779C768.845 626.779 769.078 626.546 769.078 626.259C769.078 625.971 768.845 625.738 768.557 625.738C768.27 625.738 768.037 625.971 768.037 626.259C768.037 626.546 768.27 626.779 768.557 626.779Z" fill="black"/>
<path opacity="0.8" d="M759.384 625.517C759.671 625.517 759.904 625.284 759.904 624.997C759.904 624.71 759.671 624.477 759.384 624.477C759.096 624.477 758.863 624.71 758.863 624.997C758.863 625.284 759.096 625.517 759.384 625.517Z" fill="black"/>
<path opacity="0.8" d="M762.423 626.26C762.71 626.26 762.943 626.027 762.943 625.739C762.943 625.452 762.71 625.219 762.423 625.219C762.135 625.219 761.902 625.452 761.902 625.739C761.902 626.027 762.135 626.26 762.423 626.26Z" fill="black"/>
<path opacity="0.8" d="M753.706 624.478C753.993 624.478 754.226 624.245 754.226 623.958C754.226 623.671 753.993 623.438 753.706 623.438C753.419 623.438 753.186 623.671 753.186 623.958C753.186 624.245 753.419 624.478 753.706 624.478Z" fill="black"/>
<path opacity="0.8" d="M756.44 624.998C756.728 624.998 756.961 624.765 756.961 624.477C756.961 624.19 756.728 623.957 756.44 623.957C756.153 623.957 755.92 624.19 755.92 624.477C755.92 624.765 756.153 624.998 756.44 624.998Z" fill="black"/>
<path opacity="0.8" d="M750.71 623.435C750.997 623.435 751.23 623.202 751.23 622.915C751.23 622.628 750.997 622.395 750.71 622.395C750.422 622.395 750.189 622.628 750.189 622.915C750.189 623.202 750.422 623.435 750.71 623.435Z" fill="black"/>
<path opacity="0.8" d="M783.981 625.217C784.269 625.217 784.502 624.984 784.502 624.696C784.502 624.409 784.269 624.176 783.981 624.176C783.694 624.176 783.461 624.409 783.461 624.696C783.461 624.984 783.694 625.217 783.981 625.217Z" fill="black"/>
<path opacity="0.8" d="M777.942 626.26C778.23 626.26 778.463 626.027 778.463 625.739C778.463 625.452 778.23 625.219 777.942 625.219C777.655 625.219 777.422 625.452 777.422 625.739C777.422 626.027 777.655 626.26 777.942 626.26Z" fill="black"/>
<path opacity="0.8" d="M771.391 626.779C771.679 626.779 771.912 626.546 771.912 626.259C771.912 625.971 771.679 625.738 771.391 625.738C771.104 625.738 770.871 625.971 770.871 626.259C770.871 626.546 771.104 626.779 771.391 626.779Z" fill="black"/>
<path opacity="0.8" d="M765.431 626.779C765.718 626.779 765.951 626.546 765.951 626.259C765.951 625.971 765.718 625.738 765.431 625.738C765.143 625.738 764.91 625.971 764.91 626.259C764.91 626.546 765.143 626.779 765.431 626.779Z" fill="black"/>
</g>
<g opacity="0.8">
<path opacity="0.8" d="M792.876 625.26C793.163 625.26 793.396 625.027 793.396 624.739C793.396 624.452 793.163 624.219 792.876 624.219C792.588 624.219 792.355 624.452 792.355 624.739C792.355 625.027 792.588 625.26 792.876 625.26Z" fill="black"/>
<path opacity="0.8" d="M790.235 625.998C790.523 625.998 790.756 625.765 790.756 625.477C790.756 625.19 790.523 624.957 790.235 624.957C789.948 624.957 789.715 625.19 789.715 625.477C789.715 625.765 789.948 625.998 790.235 625.998Z" fill="black"/>
<path opacity="0.8" d="M786.97 627.041C787.257 627.041 787.49 626.808 787.49 626.52C787.49 626.233 787.257 626 786.97 626C786.682 626 786.449 626.233 786.449 626.52C786.449 626.808 786.682 627.041 786.97 627.041Z" fill="black"/>
<path opacity="0.8" d="M781.118 628.299C781.405 628.299 781.638 628.066 781.638 627.778C781.638 627.491 781.405 627.258 781.118 627.258C780.831 627.258 780.598 627.491 780.598 627.778C780.598 628.066 780.831 628.299 781.118 628.299Z" fill="black"/>
<path opacity="0.8" d="M774.946 629.049C775.234 629.049 775.467 628.816 775.467 628.528C775.467 628.241 775.234 628.008 774.946 628.008C774.659 628.008 774.426 628.241 774.426 628.528C774.426 628.816 774.659 629.049 774.946 629.049Z" fill="black"/>
<path opacity="0.8" d="M768.557 629.342C768.845 629.342 769.078 629.109 769.078 628.821C769.078 628.534 768.845 628.301 768.557 628.301C768.27 628.301 768.037 628.534 768.037 628.821C768.037 629.109 768.27 629.342 768.557 629.342Z" fill="black"/>
<path opacity="0.8" d="M759.384 628.08C759.671 628.08 759.904 627.847 759.904 627.56C759.904 627.272 759.671 627.039 759.384 627.039C759.096 627.039 758.863 627.272 758.863 627.56C758.863 627.847 759.096 628.08 759.384 628.08Z" fill="black"/>
<path opacity="0.8" d="M762.423 628.822C762.71 628.822 762.943 628.589 762.943 628.302C762.943 628.014 762.71 627.781 762.423 627.781C762.135 627.781 761.902 628.014 761.902 628.302C761.902 628.589 762.135 628.822 762.423 628.822Z" fill="black"/>
<path opacity="0.8" d="M753.706 627.041C753.993 627.041 754.226 626.808 754.226 626.52C754.226 626.233 753.993 626 753.706 626C753.419 626 753.186 626.233 753.186 626.52C753.186 626.808 753.419 627.041 753.706 627.041Z" fill="black"/>
<path opacity="0.8" d="M756.44 627.56C756.728 627.56 756.961 627.327 756.961 627.04C756.961 626.752 756.728 626.52 756.44 626.52C756.153 626.52 755.92 626.752 755.92 627.04C755.92 627.327 756.153 627.56 756.44 627.56Z" fill="black"/>
<path opacity="0.8" d="M750.71 625.998C750.997 625.998 751.23 625.765 751.23 625.477C751.23 625.19 750.997 624.957 750.71 624.957C750.422 624.957 750.189 625.19 750.189 625.477C750.189 625.765 750.422 625.998 750.71 625.998Z" fill="black"/>
<path opacity="0.8" d="M783.981 627.779C784.269 627.779 784.502 627.546 784.502 627.259C784.502 626.971 784.269 626.738 783.981 626.738C783.694 626.738 783.461 626.971 783.461 627.259C783.461 627.546 783.694 627.779 783.981 627.779Z" fill="black"/>
<path opacity="0.8" d="M777.942 628.822C778.23 628.822 778.463 628.589 778.463 628.302C778.463 628.014 778.23 627.781 777.942 627.781C777.655 627.781 777.422 628.014 777.422 628.302C777.422 628.589 777.655 628.822 777.942 628.822Z" fill="black"/>
<path opacity="0.8" d="M771.391 629.342C771.679 629.342 771.912 629.109 771.912 628.821C771.912 628.534 771.679 628.301 771.391 628.301C771.104 628.301 770.871 628.534 770.871 628.821C770.871 629.109 771.104 629.342 771.391 629.342Z" fill="black"/>
<path opacity="0.8" d="M765.431 629.342C765.718 629.342 765.951 629.109 765.951 628.821C765.951 628.534 765.718 628.301 765.431 628.301C765.143 628.301 764.91 628.534 764.91 628.821C764.91 629.109 765.143 629.342 765.431 629.342Z" fill="black"/>
</g>
<g opacity="0.8">
<path opacity="0.8" d="M792.876 627.818C793.163 627.818 793.396 627.585 793.396 627.298C793.396 627.01 793.163 626.777 792.876 626.777C792.588 626.777 792.355 627.01 792.355 627.298C792.355 627.585 792.588 627.818 792.876 627.818Z" fill="black"/>
<path opacity="0.8" d="M790.235 628.556C790.523 628.556 790.756 628.323 790.756 628.036C790.756 627.749 790.523 627.516 790.235 627.516C789.948 627.516 789.715 627.749 789.715 628.036C789.715 628.323 789.948 628.556 790.235 628.556Z" fill="black"/>
<path opacity="0.8" d="M786.97 629.599C787.257 629.599 787.49 629.366 787.49 629.079C787.49 628.792 787.257 628.559 786.97 628.559C786.682 628.559 786.449 628.792 786.449 629.079C786.449 629.366 786.682 629.599 786.97 629.599Z" fill="black"/>
<path opacity="0.8" d="M781.118 630.857C781.405 630.857 781.638 630.624 781.638 630.337C781.638 630.049 781.405 629.816 781.118 629.816C780.831 629.816 780.598 630.049 780.598 630.337C780.598 630.624 780.831 630.857 781.118 630.857Z" fill="black"/>
<path opacity="0.8" d="M774.946 631.607C775.234 631.607 775.467 631.374 775.467 631.087C775.467 630.799 775.234 630.566 774.946 630.566C774.659 630.566 774.426 630.799 774.426 631.087C774.426 631.374 774.659 631.607 774.946 631.607Z" fill="black"/>
<path opacity="0.8" d="M768.557 631.9C768.845 631.9 769.078 631.667 769.078 631.38C769.078 631.092 768.845 630.859 768.557 630.859C768.27 630.859 768.037 631.092 768.037 631.38C768.037 631.667 768.27 631.9 768.557 631.9Z" fill="black"/>
<path opacity="0.8" d="M759.384 630.638C759.671 630.638 759.904 630.405 759.904 630.118C759.904 629.831 759.671 629.598 759.384 629.598C759.096 629.598 758.863 629.831 758.863 630.118C758.863 630.405 759.096 630.638 759.384 630.638Z" fill="black"/>
<path opacity="0.8" d="M762.423 631.381C762.71 631.381 762.943 631.148 762.943 630.86C762.943 630.573 762.71 630.34 762.423 630.34C762.135 630.34 761.902 630.573 761.902 630.86C761.902 631.148 762.135 631.381 762.423 631.381Z" fill="black"/>
<path opacity="0.8" d="M753.706 629.599C753.993 629.599 754.226 629.366 754.226 629.079C754.226 628.792 753.993 628.559 753.706 628.559C753.419 628.559 753.186 628.792 753.186 629.079C753.186 629.366 753.419 629.599 753.706 629.599Z" fill="black"/>
<path opacity="0.8" d="M756.44 630.119C756.728 630.119 756.961 629.886 756.961 629.599C756.961 629.311 756.728 629.078 756.44 629.078C756.153 629.078 755.92 629.311 755.92 629.599C755.92 629.886 756.153 630.119 756.44 630.119Z" fill="black"/>
<path opacity="0.8" d="M750.71 628.556C750.997 628.556 751.23 628.323 751.23 628.036C751.23 627.749 750.997 627.516 750.71 627.516C750.422 627.516 750.189 627.749 750.189 628.036C750.189 628.323 750.422 628.556 750.71 628.556Z" fill="black"/>
<path opacity="0.8" d="M783.981 630.338C784.269 630.338 784.502 630.105 784.502 629.817C784.502 629.53 784.269 629.297 783.981 629.297C783.694 629.297 783.461 629.53 783.461 629.817C783.461 630.105 783.694 630.338 783.981 630.338Z" fill="black"/>
<path opacity="0.8" d="M777.942 631.381C778.23 631.381 778.463 631.148 778.463 630.86C778.463 630.573 778.23 630.34 777.942 630.34C777.655 630.34 777.422 630.573 777.422 630.86C777.422 631.148 777.655 631.381 777.942 631.381Z" fill="black"/>
<path opacity="0.8" d="M771.391 631.9C771.679 631.9 771.912 631.667 771.912 631.38C771.912 631.092 771.679 630.859 771.391 630.859C771.104 630.859 770.871 631.092 770.871 631.38C770.871 631.667 771.104 631.9 771.391 631.9Z" fill="black"/>
<path opacity="0.8" d="M765.431 631.9C765.718 631.9 765.951 631.667 765.951 631.38C765.951 631.092 765.718 630.859 765.431 630.859C765.143 630.859 764.91 631.092 764.91 631.38C764.91 631.667 765.143 631.9 765.431 631.9Z" fill="black"/>
</g>
<g opacity="0.8">
<path opacity="0.8" d="M792.876 630.381C793.163 630.381 793.396 630.148 793.396 629.86C793.396 629.573 793.163 629.34 792.876 629.34C792.588 629.34 792.355 629.573 792.355 629.86C792.355 630.148 792.588 630.381 792.876 630.381Z" fill="black"/>
<path opacity="0.8" d="M790.235 631.119C790.523 631.119 790.756 630.886 790.756 630.599C790.756 630.311 790.523 630.078 790.235 630.078C789.948 630.078 789.715 630.311 789.715 630.599C789.715 630.886 789.948 631.119 790.235 631.119Z" fill="black"/>
<path opacity="0.8" d="M786.97 632.162C787.257 632.162 787.49 631.929 787.49 631.642C787.49 631.354 787.257 631.121 786.97 631.121C786.682 631.121 786.449 631.354 786.449 631.642C786.449 631.929 786.682 632.162 786.97 632.162Z" fill="black"/>
<path opacity="0.8" d="M781.118 633.42C781.405 633.42 781.638 633.187 781.638 632.899C781.638 632.612 781.405 632.379 781.118 632.379C780.831 632.379 780.598 632.612 780.598 632.899C780.598 633.187 780.831 633.42 781.118 633.42Z" fill="black"/>
<path opacity="0.8" d="M774.946 634.17C775.234 634.17 775.467 633.937 775.467 633.649C775.467 633.362 775.234 633.129 774.946 633.129C774.659 633.129 774.426 633.362 774.426 633.649C774.426 633.937 774.659 634.17 774.946 634.17Z" fill="black"/>
<path opacity="0.8" d="M768.557 634.463C768.845 634.463 769.078 634.23 769.078 633.942C769.078 633.655 768.845 633.422 768.557 633.422C768.27 633.422 768.037 633.655 768.037 633.942C768.037 634.23 768.27 634.463 768.557 634.463Z" fill="black"/>
<path opacity="0.8" d="M759.384 633.201C759.671 633.201 759.904 632.968 759.904 632.681C759.904 632.393 759.671 632.16 759.384 632.16C759.096 632.16 758.863 632.393 758.863 632.681C758.863 632.968 759.096 633.201 759.384 633.201Z" fill="black"/>
<path opacity="0.8" d="M762.423 633.943C762.71 633.943 762.943 633.71 762.943 633.423C762.943 633.135 762.71 632.902 762.423 632.902C762.135 632.902 761.902 633.135 761.902 633.423C761.902 633.71 762.135 633.943 762.423 633.943Z" fill="black"/>
<path opacity="0.8" d="M753.706 632.162C753.993 632.162 754.226 631.929 754.226 631.642C754.226 631.354 753.993 631.121 753.706 631.121C753.419 631.121 753.186 631.354 753.186 631.642C753.186 631.929 753.419 632.162 753.706 632.162Z" fill="black"/>
<path opacity="0.8" d="M756.44 632.681C756.728 632.681 756.961 632.448 756.961 632.161C756.961 631.874 756.728 631.641 756.44 631.641C756.153 631.641 755.92 631.874 755.92 632.161C755.92 632.448 756.153 632.681 756.44 632.681Z" fill="black"/>
<path opacity="0.8" d="M750.71 631.119C750.997 631.119 751.23 630.886 751.23 630.599C751.23 630.311 750.997 630.078 750.71 630.078C750.422 630.078 750.189 630.311 750.189 630.599C750.189 630.886 750.422 631.119 750.71 631.119Z" fill="black"/>
<path opacity="0.8" d="M783.981 632.9C784.269 632.9 784.502 632.667 784.502 632.38C784.502 632.092 784.269 631.859 783.981 631.859C783.694 631.859 783.461 632.092 783.461 632.38C783.461 632.667 783.694 632.9 783.981 632.9Z" fill="black"/>
<path opacity="0.8" d="M777.942 633.943C778.23 633.943 778.463 633.71 778.463 633.423C778.463 633.135 778.23 632.902 777.942 632.902C777.655 632.902 777.422 633.135 777.422 633.423C777.422 633.71 777.655 633.943 777.942 633.943Z" fill="black"/>
<path opacity="0.8" d="M771.391 634.463C771.679 634.463 771.912 634.23 771.912 633.942C771.912 633.655 771.679 633.422 771.391 633.422C771.104 633.422 770.871 633.655 770.871 633.942C770.871 634.23 771.104 634.463 771.391 634.463Z" fill="black"/>
<path opacity="0.8" d="M765.431 634.463C765.718 634.463 765.951 634.23 765.951 633.942C765.951 633.655 765.718 633.422 765.431 633.422C765.143 633.422 764.91 633.655 764.91 633.942C764.91 634.23 765.143 634.463 765.431 634.463Z" fill="black"/>
</g>
<g opacity="0.8">
<path opacity="0.8" d="M792.876 632.943C793.163 632.943 793.396 632.71 793.396 632.423C793.396 632.135 793.163 631.902 792.876 631.902C792.588 631.902 792.355 632.135 792.355 632.423C792.355 632.71 792.588 632.943 792.876 632.943Z" fill="black"/>
<path opacity="0.8" d="M790.235 633.681C790.523 633.681 790.756 633.448 790.756 633.161C790.756 632.874 790.523 632.641 790.235 632.641C789.948 632.641 789.715 632.874 789.715 633.161C789.715 633.448 789.948 633.681 790.235 633.681Z" fill="black"/>
<path opacity="0.8" d="M786.97 634.724C787.257 634.724 787.49 634.491 787.49 634.204C787.49 633.917 787.257 633.684 786.97 633.684C786.682 633.684 786.449 633.917 786.449 634.204C786.449 634.491 786.682 634.724 786.97 634.724Z" fill="black"/>
<path opacity="0.8" d="M781.118 635.982C781.405 635.982 781.638 635.749 781.638 635.462C781.638 635.174 781.405 634.941 781.118 634.941C780.831 634.941 780.598 635.174 780.598 635.462C780.598 635.749 780.831 635.982 781.118 635.982Z" fill="black"/>
<path opacity="0.8" d="M774.946 636.732C775.234 636.732 775.467 636.499 775.467 636.212C775.467 635.924 775.234 635.691 774.946 635.691C774.659 635.691 774.426 635.924 774.426 636.212C774.426 636.499 774.659 636.732 774.946 636.732Z" fill="black"/>
<path opacity="0.8" d="M768.557 637.025C768.845 637.025 769.078 636.792 769.078 636.505C769.078 636.217 768.845 635.984 768.557 635.984C768.27 635.984 768.037 636.217 768.037 636.505C768.037 636.792 768.27 637.025 768.557 637.025Z" fill="black"/>
<path opacity="0.8" d="M759.384 635.763C759.671 635.763 759.904 635.531 759.904 635.243C759.904 634.956 759.671 634.723 759.384 634.723C759.096 634.723 758.863 634.956 758.863 635.243C758.863 635.531 759.096 635.763 759.384 635.763Z" fill="black"/>
<path opacity="0.8" d="M762.423 636.506C762.71 636.506 762.943 636.273 762.943 635.985C762.943 635.698 762.71 635.465 762.423 635.465C762.135 635.465 761.902 635.698 761.902 635.985C761.902 636.273 762.135 636.506 762.423 636.506Z" fill="black"/>
<path opacity="0.8" d="M753.706 634.724C753.993 634.724 754.226 634.491 754.226 634.204C754.226 633.917 753.993 633.684 753.706 633.684C753.419 633.684 753.186 633.917 753.186 634.204C753.186 634.491 753.419 634.724 753.706 634.724Z" fill="black"/>
<path opacity="0.8" d="M756.44 635.244C756.728 635.244 756.961 635.011 756.961 634.724C756.961 634.436 756.728 634.203 756.44 634.203C756.153 634.203 755.92 634.436 755.92 634.724C755.92 635.011 756.153 635.244 756.44 635.244Z" fill="black"/>
<path opacity="0.8" d="M750.71 633.681C750.997 633.681 751.23 633.448 751.23 633.161C751.23 632.874 750.997 632.641 750.71 632.641C750.422 632.641 750.189 632.874 750.189 633.161C750.189 633.448 750.422 633.681 750.71 633.681Z" fill="black"/>
<path opacity="0.8" d="M783.981 635.463C784.269 635.463 784.502 635.23 784.502 634.942C784.502 634.655 784.269 634.422 783.981 634.422C783.694 634.422 783.461 634.655 783.461 634.942C783.461 635.23 783.694 635.463 783.981 635.463Z" fill="black"/>
<path opacity="0.8" d="M777.942 636.506C778.23 636.506 778.463 636.273 778.463 635.985C778.463 635.698 778.23 635.465 777.942 635.465C777.655 635.465 777.422 635.698 777.422 635.985C777.422 636.273 777.655 636.506 777.942 636.506Z" fill="black"/>
<path opacity="0.8" d="M771.391 637.025C771.679 637.025 771.912 636.792 771.912 636.505C771.912 636.217 771.679 635.984 771.391 635.984C771.104 635.984 770.871 636.217 770.871 636.505C770.871 636.792 771.104 637.025 771.391 637.025Z" fill="black"/>
<path opacity="0.8" d="M765.431 637.025C765.718 637.025 765.951 636.792 765.951 636.505C765.951 636.217 765.718 635.984 765.431 635.984C765.143 635.984 764.91 636.217 764.91 636.505C764.91 636.792 765.143 637.025 765.431 637.025Z" fill="black"/>
</g>
<g opacity="0.8">
<path opacity="0.8" d="M792.876 635.502C793.163 635.502 793.396 635.269 793.396 634.981C793.396 634.694 793.163 634.461 792.876 634.461C792.588 634.461 792.355 634.694 792.355 634.981C792.355 635.269 792.588 635.502 792.876 635.502Z" fill="black"/>
<path opacity="0.8" d="M790.235 636.24C790.523 636.24 790.756 636.007 790.756 635.72C790.756 635.432 790.523 635.199 790.235 635.199C789.948 635.199 789.715 635.432 789.715 635.72C789.715 636.007 789.948 636.24 790.235 636.24Z" fill="black"/>
<path opacity="0.8" d="M786.97 637.283C787.257 637.283 787.49 637.05 787.49 636.763C787.49 636.475 787.257 636.242 786.97 636.242C786.682 636.242 786.449 636.475 786.449 636.763C786.449 637.05 786.682 637.283 786.97 637.283Z" fill="black"/>
<path opacity="0.8" d="M781.118 638.541C781.405 638.541 781.638 638.308 781.638 638.02C781.638 637.733 781.405 637.5 781.118 637.5C780.831 637.5 780.598 637.733 780.598 638.02C780.598 638.308 780.831 638.541 781.118 638.541Z" fill="black"/>
<path opacity="0.8" d="M774.946 639.291C775.234 639.291 775.467 639.058 775.467 638.77C775.467 638.483 775.234 638.25 774.946 638.25C774.659 638.25 774.426 638.483 774.426 638.77C774.426 639.058 774.659 639.291 774.946 639.291Z" fill="black"/>
<path opacity="0.8" d="M768.557 639.584C768.845 639.584 769.078 639.351 769.078 639.063C769.078 638.776 768.845 638.543 768.557 638.543C768.27 638.543 768.037 638.776 768.037 639.063C768.037 639.351 768.27 639.584 768.557 639.584Z" fill="black"/>
<path opacity="0.8" d="M759.384 638.322C759.671 638.322 759.904 638.089 759.904 637.802C759.904 637.514 759.671 637.281 759.384 637.281C759.096 637.281 758.863 637.514 758.863 637.802C758.863 638.089 759.096 638.322 759.384 638.322Z" fill="black"/>
<path opacity="0.8" d="M762.423 639.064C762.71 639.064 762.943 638.831 762.943 638.544C762.943 638.256 762.71 638.023 762.423 638.023C762.135 638.023 761.902 638.256 761.902 638.544C761.902 638.831 762.135 639.064 762.423 639.064Z" fill="black"/>
<path opacity="0.8" d="M753.706 637.283C753.993 637.283 754.226 637.05 754.226 636.763C754.226 636.475 753.993 636.242 753.706 636.242C753.419 636.242 753.186 636.475 753.186 636.763C753.186 637.05 753.419 637.283 753.706 637.283Z" fill="black"/>
<path opacity="0.8" d="M756.44 637.803C756.728 637.803 756.961 637.57 756.961 637.282C756.961 636.995 756.728 636.762 756.44 636.762C756.153 636.762 755.92 636.995 755.92 637.282C755.92 637.57 756.153 637.803 756.44 637.803Z" fill="black"/>
<path opacity="0.8" d="M750.71 636.24C750.997 636.24 751.23 636.007 751.23 635.72C751.23 635.432 750.997 635.199 750.71 635.199C750.422 635.199 750.189 635.432 750.189 635.72C750.189 636.007 750.422 636.24 750.71 636.24Z" fill="black"/>
<path opacity="0.8" d="M783.981 638.021C784.269 638.021 784.502 637.788 784.502 637.501C784.502 637.213 784.269 636.98 783.981 636.98C783.694 636.98 783.461 637.213 783.461 637.501C783.461 637.788 783.694 638.021 783.981 638.021Z" fill="black"/>
<path opacity="0.8" d="M777.942 639.064C778.23 639.064 778.463 638.831 778.463 638.544C778.463 638.256 778.23 638.023 777.942 638.023C777.655 638.023 777.422 638.256 777.422 638.544C777.422 638.831 777.655 639.064 777.942 639.064Z" fill="black"/>
<path opacity="0.8" d="M771.391 639.584C771.679 639.584 771.912 639.351 771.912 639.063C771.912 638.776 771.679 638.543 771.391 638.543C771.104 638.543 770.871 638.776 770.871 639.063C770.871 639.351 771.104 639.584 771.391 639.584Z" fill="black"/>
<path opacity="0.8" d="M765.431 639.584C765.718 639.584 765.951 639.351 765.951 639.063C765.951 638.776 765.718 638.543 765.431 638.543C765.143 638.543 764.91 638.776 764.91 639.063C764.91 639.351 765.143 639.584 765.431 639.584Z" fill="black"/>
</g>
<g opacity="0.8">
<path opacity="0.8" d="M792.876 638.064C793.163 638.064 793.396 637.831 793.396 637.544C793.396 637.256 793.163 637.023 792.876 637.023C792.588 637.023 792.355 637.256 792.355 637.544C792.355 637.831 792.588 638.064 792.876 638.064Z" fill="black"/>
<path opacity="0.8" d="M790.235 638.803C790.523 638.803 790.756 638.57 790.756 638.282C790.756 637.995 790.523 637.762 790.235 637.762C789.948 637.762 789.715 637.995 789.715 638.282C789.715 638.57 789.948 638.803 790.235 638.803Z" fill="black"/>
<path opacity="0.8" d="M786.97 639.846C787.257 639.846 787.49 639.612 787.49 639.325C787.49 639.038 787.257 638.805 786.97 638.805C786.682 638.805 786.449 639.038 786.449 639.325C786.449 639.612 786.682 639.846 786.97 639.846Z" fill="black"/>
<path opacity="0.8" d="M781.118 641.103C781.405 641.103 781.638 640.87 781.638 640.583C781.638 640.296 781.405 640.062 781.118 640.062C780.831 640.062 780.598 640.296 780.598 640.583C780.598 640.87 780.831 641.103 781.118 641.103Z" fill="black"/>
<path opacity="0.8" d="M774.946 641.853C775.234 641.853 775.467 641.62 775.467 641.333C775.467 641.045 775.234 640.812 774.946 640.812C774.659 640.812 774.426 641.045 774.426 641.333C774.426 641.62 774.659 641.853 774.946 641.853Z" fill="black"/>
<path opacity="0.8" d="M768.557 642.146C768.845 642.146 769.078 641.913 769.078 641.626C769.078 641.338 768.845 641.105 768.557 641.105C768.27 641.105 768.037 641.338 768.037 641.626C768.037 641.913 768.27 642.146 768.557 642.146Z" fill="black"/>
<path opacity="0.8" d="M759.384 640.885C759.671 640.885 759.904 640.652 759.904 640.364C759.904 640.077 759.671 639.844 759.384 639.844C759.096 639.844 758.863 640.077 758.863 640.364C758.863 640.652 759.096 640.885 759.384 640.885Z" fill="black"/>
<path opacity="0.8" d="M762.423 641.627C762.71 641.627 762.943 641.394 762.943 641.106C762.943 640.819 762.71 640.586 762.423 640.586C762.135 640.586 761.902 640.819 761.902 641.106C761.902 641.394 762.135 641.627 762.423 641.627Z" fill="black"/>
<path opacity="0.8" d="M753.706 639.846C753.993 639.846 754.226 639.612 754.226 639.325C754.226 639.038 753.993 638.805 753.706 638.805C753.419 638.805 753.186 639.038 753.186 639.325C753.186 639.612 753.419 639.846 753.706 639.846Z" fill="black"/>
<path opacity="0.8" d="M756.44 640.365C756.728 640.365 756.961 640.132 756.961 639.845C756.961 639.557 756.728 639.324 756.44 639.324C756.153 639.324 755.92 639.557 755.92 639.845C755.92 640.132 756.153 640.365 756.44 640.365Z" fill="black"/>
<path opacity="0.8" d="M750.71 638.803C750.997 638.803 751.23 638.57 751.23 638.282C751.23 637.995 750.997 637.762 750.71 637.762C750.422 637.762 750.189 637.995 750.189 638.282C750.189 638.57 750.422 638.803 750.71 638.803Z" fill="black"/>
<path opacity="0.8" d="M783.981 640.584C784.269 640.584 784.502 640.351 784.502 640.063C784.502 639.776 784.269 639.543 783.981 639.543C783.694 639.543 783.461 639.776 783.461 640.063C783.461 640.351 783.694 640.584 783.981 640.584Z" fill="black"/>
<path opacity="0.8" d="M777.942 641.627C778.23 641.627 778.463 641.394 778.463 641.106C778.463 640.819 778.23 640.586 777.942 640.586C777.655 640.586 777.422 640.819 777.422 641.106C777.422 641.394 777.655 641.627 777.942 641.627Z" fill="black"/>
<path opacity="0.8" d="M771.391 642.146C771.679 642.146 771.912 641.913 771.912 641.626C771.912 641.338 771.679 641.105 771.391 641.105C771.104 641.105 770.871 641.338 770.871 641.626C770.871 641.913 771.104 642.146 771.391 642.146Z" fill="black"/>
<path opacity="0.8" d="M765.431 642.146C765.718 642.146 765.951 641.913 765.951 641.626C765.951 641.338 765.718 641.105 765.431 641.105C765.143 641.105 764.91 641.338 764.91 641.626C764.91 641.913 765.143 642.146 765.431 642.146Z" fill="black"/>
</g>
<g opacity="0.8">
<path opacity="0.8" d="M792.876 640.623C793.163 640.623 793.396 640.39 793.396 640.102C793.396 639.815 793.163 639.582 792.876 639.582C792.588 639.582 792.355 639.815 792.355 640.102C792.355 640.39 792.588 640.623 792.876 640.623Z" fill="black"/>
<path opacity="0.8" d="M790.235 641.361C790.523 641.361 790.756 641.128 790.756 640.841C790.756 640.553 790.523 640.32 790.235 640.32C789.948 640.32 789.715 640.553 789.715 640.841C789.715 641.128 789.948 641.361 790.235 641.361Z" fill="black"/>
<path opacity="0.8" d="M786.97 642.404C787.257 642.404 787.49 642.171 787.49 641.884C787.49 641.596 787.257 641.363 786.97 641.363C786.682 641.363 786.449 641.596 786.449 641.884C786.449 642.171 786.682 642.404 786.97 642.404Z" fill="black"/>
<path opacity="0.8" d="M781.118 643.662C781.405 643.662 781.638 643.429 781.638 643.141C781.638 642.854 781.405 642.621 781.118 642.621C780.831 642.621 780.598 642.854 780.598 643.141C780.598 643.429 780.831 643.662 781.118 643.662Z" fill="black"/>
<path opacity="0.8" d="M774.946 644.412C775.234 644.412 775.467 644.179 775.467 643.891C775.467 643.604 775.234 643.371 774.946 643.371C774.659 643.371 774.426 643.604 774.426 643.891C774.426 644.179 774.659 644.412 774.946 644.412Z" fill="black"/>
<path opacity="0.8" d="M768.557 644.705C768.845 644.705 769.078 644.472 769.078 644.184C769.078 643.897 768.845 643.664 768.557 643.664C768.27 643.664 768.037 643.897 768.037 644.184C768.037 644.472 768.27 644.705 768.557 644.705Z" fill="black"/>
<path opacity="0.8" d="M759.384 643.443C759.671 643.443 759.904 643.21 759.904 642.923C759.904 642.635 759.671 642.402 759.384 642.402C759.096 642.402 758.863 642.635 758.863 642.923C758.863 643.21 759.096 643.443 759.384 643.443Z" fill="black"/>
<path opacity="0.8" d="M762.423 644.185C762.71 644.185 762.943 643.952 762.943 643.665C762.943 643.378 762.71 643.145 762.423 643.145C762.135 643.145 761.902 643.378 761.902 643.665C761.902 643.952 762.135 644.185 762.423 644.185Z" fill="black"/>
<path opacity="0.8" d="M753.706 642.404C753.993 642.404 754.226 642.171 754.226 641.884C754.226 641.596 753.993 641.363 753.706 641.363C753.419 641.363 753.186 641.596 753.186 641.884C753.186 642.171 753.419 642.404 753.706 642.404Z" fill="black"/>
<path opacity="0.8" d="M756.44 642.924C756.728 642.924 756.961 642.691 756.961 642.403C756.961 642.116 756.728 641.883 756.44 641.883C756.153 641.883 755.92 642.116 755.92 642.403C755.92 642.691 756.153 642.924 756.44 642.924Z" fill="black"/>
<path opacity="0.8" d="M750.71 641.361C750.997 641.361 751.23 641.128 751.23 640.841C751.23 640.553 750.997 640.32 750.71 640.32C750.422 640.32 750.189 640.553 750.189 640.841C750.189 641.128 750.422 641.361 750.71 641.361Z" fill="black"/>
<path opacity="0.8" d="M783.981 643.142C784.269 643.142 784.502 642.909 784.502 642.622C784.502 642.335 784.269 642.102 783.981 642.102C783.694 642.102 783.461 642.335 783.461 642.622C783.461 642.909 783.694 643.142 783.981 643.142Z" fill="black"/>
<path opacity="0.8" d="M777.942 644.185C778.23 644.185 778.463 643.952 778.463 643.665C778.463 643.378 778.23 643.145 777.942 643.145C777.655 643.145 777.422 643.378 777.422 643.665C777.422 643.952 777.655 644.185 777.942 644.185Z" fill="black"/>
<path opacity="0.8" d="M771.391 644.705C771.679 644.705 771.912 644.472 771.912 644.184C771.912 643.897 771.679 643.664 771.391 643.664C771.104 643.664 770.871 643.897 770.871 644.184C770.871 644.472 771.104 644.705 771.391 644.705Z" fill="black"/>
<path opacity="0.8" d="M765.431 644.705C765.718 644.705 765.951 644.472 765.951 644.184C765.951 643.897 765.718 643.664 765.431 643.664C765.143 643.664 764.91 643.897 764.91 644.184C764.91 644.472 765.143 644.705 765.431 644.705Z" fill="black"/>
</g>
<g opacity="0.8">
<path opacity="0.8" d="M792.876 643.185C793.163 643.185 793.396 642.952 793.396 642.665C793.396 642.378 793.163 642.145 792.876 642.145C792.588 642.145 792.355 642.378 792.355 642.665C792.355 642.952 792.588 643.185 792.876 643.185Z" fill="black"/>
<path opacity="0.8" d="M790.235 643.924C790.523 643.924 790.756 643.691 790.756 643.403C790.756 643.116 790.523 642.883 790.235 642.883C789.948 642.883 789.715 643.116 789.715 643.403C789.715 643.691 789.948 643.924 790.235 643.924Z" fill="black"/>
<path opacity="0.8" d="M786.97 644.967C787.257 644.967 787.49 644.734 787.49 644.446C787.49 644.159 787.257 643.926 786.97 643.926C786.682 643.926 786.449 644.159 786.449 644.446C786.449 644.734 786.682 644.967 786.97 644.967Z" fill="black"/>
<path opacity="0.8" d="M781.118 646.224C781.405 646.224 781.638 645.991 781.638 645.704C781.638 645.417 781.405 645.184 781.118 645.184C780.831 645.184 780.598 645.417 780.598 645.704C780.598 645.991 780.831 646.224 781.118 646.224Z" fill="black"/>
<path opacity="0.8" d="M774.946 646.974C775.234 646.974 775.467 646.741 775.467 646.454C775.467 646.167 775.234 645.934 774.946 645.934C774.659 645.934 774.426 646.167 774.426 646.454C774.426 646.741 774.659 646.974 774.946 646.974Z" fill="black"/>
<path opacity="0.8" d="M768.557 647.267C768.845 647.267 769.078 647.034 769.078 646.747C769.078 646.46 768.845 646.227 768.557 646.227C768.27 646.227 768.037 646.46 768.037 646.747C768.037 647.034 768.27 647.267 768.557 647.267Z" fill="black"/>
<path opacity="0.8" d="M759.384 646.006C759.671 646.006 759.904 645.773 759.904 645.485C759.904 645.198 759.671 644.965 759.384 644.965C759.096 644.965 758.863 645.198 758.863 645.485C758.863 645.773 759.096 646.006 759.384 646.006Z" fill="black"/>
<path opacity="0.8" d="M762.423 646.748C762.71 646.748 762.943 646.515 762.943 646.227C762.943 645.94 762.71 645.707 762.423 645.707C762.135 645.707 761.902 645.94 761.902 646.227C761.902 646.515 762.135 646.748 762.423 646.748Z" fill="black"/>
<path opacity="0.8" d="M753.706 644.967C753.993 644.967 754.226 644.734 754.226 644.446C754.226 644.159 753.993 643.926 753.706 643.926C753.419 643.926 753.186 644.159 753.186 644.446C753.186 644.734 753.419 644.967 753.706 644.967Z" fill="black"/>
<path opacity="0.8" d="M756.44 645.486C756.728 645.486 756.961 645.253 756.961 644.966C756.961 644.678 756.728 644.445 756.44 644.445C756.153 644.445 755.92 644.678 755.92 644.966C755.92 645.253 756.153 645.486 756.44 645.486Z" fill="black"/>
<path opacity="0.8" d="M750.71 643.924C750.997 643.924 751.23 643.691 751.23 643.403C751.23 643.116 750.997 642.883 750.71 642.883C750.422 642.883 750.189 643.116 750.189 643.403C750.189 643.691 750.422 643.924 750.71 643.924Z" fill="black"/>
<path opacity="0.8" d="M783.981 645.705C784.269 645.705 784.502 645.472 784.502 645.185C784.502 644.897 784.269 644.664 783.981 644.664C783.694 644.664 783.461 644.897 783.461 645.185C783.461 645.472 783.694 645.705 783.981 645.705Z" fill="black"/>
<path opacity="0.8" d="M777.942 646.748C778.23 646.748 778.463 646.515 778.463 646.227C778.463 645.94 778.23 645.707 777.942 645.707C777.655 645.707 777.422 645.94 777.422 646.227C777.422 646.515 777.655 646.748 777.942 646.748Z" fill="black"/>
<path opacity="0.8" d="M771.391 647.267C771.679 647.267 771.912 647.034 771.912 646.747C771.912 646.46 771.679 646.227 771.391 646.227C771.104 646.227 770.871 646.46 770.871 646.747C770.871 647.034 771.104 647.267 771.391 647.267Z" fill="black"/>
<path opacity="0.8" d="M765.431 647.267C765.718 647.267 765.951 647.034 765.951 646.747C765.951 646.46 765.718 646.227 765.431 646.227C765.143 646.227 764.91 646.46 764.91 646.747C764.91 647.034 765.143 647.267 765.431 647.267Z" fill="black"/>
</g>
<g opacity="0.8">
<path opacity="0.8" d="M792.876 645.748C793.163 645.748 793.396 645.515 793.396 645.227C793.396 644.94 793.163 644.707 792.876 644.707C792.588 644.707 792.355 644.94 792.355 645.227C792.355 645.515 792.588 645.748 792.876 645.748Z" fill="black"/>
<path opacity="0.8" d="M790.235 646.486C790.523 646.486 790.756 646.253 790.756 645.966C790.756 645.678 790.523 645.445 790.235 645.445C789.948 645.445 789.715 645.678 789.715 645.966C789.715 646.253 789.948 646.486 790.235 646.486Z" fill="black"/>
<path opacity="0.8" d="M786.97 647.529C787.257 647.529 787.49 647.296 787.49 647.009C787.49 646.721 787.257 646.488 786.97 646.488C786.682 646.488 786.449 646.721 786.449 647.009C786.449 647.296 786.682 647.529 786.97 647.529Z" fill="black"/>
<path opacity="0.8" d="M781.118 648.787C781.405 648.787 781.638 648.554 781.638 648.267C781.638 647.979 781.405 647.746 781.118 647.746C780.831 647.746 780.598 647.979 780.598 648.267C780.598 648.554 780.831 648.787 781.118 648.787Z" fill="black"/>
<path opacity="0.8" d="M774.946 649.537C775.234 649.537 775.467 649.304 775.467 649.016C775.467 648.729 775.234 648.496 774.946 648.496C774.659 648.496 774.426 648.729 774.426 649.016C774.426 649.304 774.659 649.537 774.946 649.537Z" fill="black"/>
<path opacity="0.8" d="M768.557 649.83C768.845 649.83 769.078 649.597 769.078 649.31C769.078 649.022 768.845 648.789 768.557 648.789C768.27 648.789 768.037 649.022 768.037 649.31C768.037 649.597 768.27 649.83 768.557 649.83Z" fill="black"/>
<path opacity="0.8" d="M759.384 648.568C759.671 648.568 759.904 648.335 759.904 648.048C759.904 647.76 759.671 647.527 759.384 647.527C759.096 647.527 758.863 647.76 758.863 648.048C758.863 648.335 759.096 648.568 759.384 648.568Z" fill="black"/>
<path opacity="0.8" d="M762.423 649.31C762.71 649.31 762.943 649.077 762.943 648.79C762.943 648.502 762.71 648.27 762.423 648.27C762.135 648.27 761.902 648.502 761.902 648.79C761.902 649.077 762.135 649.31 762.423 649.31Z" fill="black"/>
<path opacity="0.8" d="M753.706 647.529C753.993 647.529 754.226 647.296 754.226 647.009C754.226 646.721 753.993 646.488 753.706 646.488C753.419 646.488 753.186 646.721 753.186 647.009C753.186 647.296 753.419 647.529 753.706 647.529Z" fill="black"/>
<path opacity="0.8" d="M756.44 648.049C756.728 648.049 756.961 647.816 756.961 647.528C756.961 647.241 756.728 647.008 756.44 647.008C756.153 647.008 755.92 647.241 755.92 647.528C755.92 647.816 756.153 648.049 756.44 648.049Z" fill="black"/>
<path opacity="0.8" d="M750.71 646.486C750.997 646.486 751.23 646.253 751.23 645.966C751.23 645.678 750.997 645.445 750.71 645.445C750.422 645.445 750.189 645.678 750.189 645.966C750.189 646.253 750.422 646.486 750.71 646.486Z" fill="black"/>
<path opacity="0.8" d="M783.981 648.267C784.269 648.267 784.502 648.034 784.502 647.747C784.502 647.46 784.269 647.227 783.981 647.227C783.694 647.227 783.461 647.46 783.461 647.747C783.461 648.034 783.694 648.267 783.981 648.267Z" fill="black"/>
<path opacity="0.8" d="M777.942 649.31C778.23 649.31 778.463 649.077 778.463 648.79C778.463 648.502 778.23 648.27 777.942 648.27C777.655 648.27 777.422 648.502 777.422 648.79C777.422 649.077 777.655 649.31 777.942 649.31Z" fill="black"/>
<path opacity="0.8" d="M771.391 649.83C771.679 649.83 771.912 649.597 771.912 649.31C771.912 649.022 771.679 648.789 771.391 648.789C771.104 648.789 770.871 649.022 770.871 649.31C770.871 649.597 771.104 649.83 771.391 649.83Z" fill="black"/>
<path opacity="0.8" d="M765.431 649.83C765.718 649.83 765.951 649.597 765.951 649.31C765.951 649.022 765.718 648.789 765.431 648.789C765.143 648.789 764.91 649.022 764.91 649.31C764.91 649.597 765.143 649.83 765.431 649.83Z" fill="black"/>
</g>
<g opacity="0.8">
<path opacity="0.8" d="M792.876 648.306C793.163 648.306 793.396 648.073 793.396 647.786C793.396 647.499 793.163 647.266 792.876 647.266C792.588 647.266 792.355 647.499 792.355 647.786C792.355 648.073 792.588 648.306 792.876 648.306Z" fill="black"/>
<path opacity="0.8" d="M790.235 649.045C790.523 649.045 790.756 648.812 790.756 648.524C790.756 648.237 790.523 648.004 790.235 648.004C789.948 648.004 789.715 648.237 789.715 648.524C789.715 648.812 789.948 649.045 790.235 649.045Z" fill="black"/>
<path opacity="0.8" d="M786.97 650.088C787.257 650.088 787.49 649.855 787.49 649.567C787.49 649.28 787.257 649.047 786.97 649.047C786.682 649.047 786.449 649.28 786.449 649.567C786.449 649.855 786.682 650.088 786.97 650.088Z" fill="black"/>
<path opacity="0.8" d="M781.118 651.346C781.405 651.346 781.638 651.112 781.638 650.825C781.638 650.538 781.405 650.305 781.118 650.305C780.831 650.305 780.598 650.538 780.598 650.825C780.598 651.112 780.831 651.346 781.118 651.346Z" fill="black"/>
<path opacity="0.8" d="M774.946 652.096C775.234 652.096 775.467 651.862 775.467 651.575C775.467 651.288 775.234 651.055 774.946 651.055C774.659 651.055 774.426 651.288 774.426 651.575C774.426 651.862 774.659 652.096 774.946 652.096Z" fill="black"/>
<path opacity="0.8" d="M768.557 652.388C768.845 652.388 769.078 652.156 769.078 651.868C769.078 651.581 768.845 651.348 768.557 651.348C768.27 651.348 768.037 651.581 768.037 651.868C768.037 652.156 768.27 652.388 768.557 652.388Z" fill="black"/>
<path opacity="0.8" d="M759.384 651.127C759.671 651.127 759.904 650.894 759.904 650.606C759.904 650.319 759.671 650.086 759.384 650.086C759.096 650.086 758.863 650.319 758.863 650.606C758.863 650.894 759.096 651.127 759.384 651.127Z" fill="black"/>
<path opacity="0.8" d="M762.423 651.869C762.71 651.869 762.943 651.636 762.943 651.349C762.943 651.061 762.71 650.828 762.423 650.828C762.135 650.828 761.902 651.061 761.902 651.349C761.902 651.636 762.135 651.869 762.423 651.869Z" fill="black"/>
<path opacity="0.8" d="M753.706 650.088C753.993 650.088 754.226 649.855 754.226 649.567C754.226 649.28 753.993 649.047 753.706 649.047C753.419 649.047 753.186 649.28 753.186 649.567C753.186 649.855 753.419 650.088 753.706 650.088Z" fill="black"/>
<path opacity="0.8" d="M756.44 650.607C756.728 650.607 756.961 650.374 756.961 650.087C756.961 649.799 756.728 649.566 756.44 649.566C756.153 649.566 755.92 649.799 755.92 650.087C755.92 650.374 756.153 650.607 756.44 650.607Z" fill="black"/>
<path opacity="0.8" d="M750.71 649.045C750.997 649.045 751.23 648.812 751.23 648.524C751.23 648.237 750.997 648.004 750.71 648.004C750.422 648.004 750.189 648.237 750.189 648.524C750.189 648.812 750.422 649.045 750.71 649.045Z" fill="black"/>
<path opacity="0.8" d="M783.981 650.826C784.269 650.826 784.502 650.593 784.502 650.306C784.502 650.018 784.269 649.785 783.981 649.785C783.694 649.785 783.461 650.018 783.461 650.306C783.461 650.593 783.694 650.826 783.981 650.826Z" fill="black"/>
<path opacity="0.8" d="M777.942 651.869C778.23 651.869 778.463 651.636 778.463 651.349C778.463 651.061 778.23 650.828 777.942 650.828C777.655 650.828 777.422 651.061 777.422 651.349C777.422 651.636 777.655 651.869 777.942 651.869Z" fill="black"/>
<path opacity="0.8" d="M771.391 652.388C771.679 652.388 771.912 652.156 771.912 651.868C771.912 651.581 771.679 651.348 771.391 651.348C771.104 651.348 770.871 651.581 770.871 651.868C770.871 652.156 771.104 652.388 771.391 652.388Z" fill="black"/>
<path opacity="0.8" d="M765.431 652.388C765.718 652.388 765.951 652.156 765.951 651.868C765.951 651.581 765.718 651.348 765.431 651.348C765.143 651.348 764.91 651.581 764.91 651.868C764.91 652.156 765.143 652.388 765.431 652.388Z" fill="black"/>
</g>
<g opacity="0.8">
<path opacity="0.8" d="M792.876 650.869C793.163 650.869 793.396 650.636 793.396 650.349C793.396 650.061 793.163 649.828 792.876 649.828C792.588 649.828 792.355 650.061 792.355 650.349C792.355 650.636 792.588 650.869 792.876 650.869Z" fill="black"/>
<path opacity="0.8" d="M790.235 651.607C790.523 651.607 790.756 651.374 790.756 651.087C790.756 650.799 790.523 650.566 790.235 650.566C789.948 650.566 789.715 650.799 789.715 651.087C789.715 651.374 789.948 651.607 790.235 651.607Z" fill="black"/>
<path opacity="0.8" d="M786.97 652.65C787.257 652.65 787.49 652.417 787.49 652.13C787.49 651.842 787.257 651.609 786.97 651.609C786.682 651.609 786.449 651.842 786.449 652.13C786.449 652.417 786.682 652.65 786.97 652.65Z" fill="black"/>
<path opacity="0.8" d="M781.118 653.908C781.405 653.908 781.638 653.675 781.638 653.388C781.638 653.1 781.405 652.867 781.118 652.867C780.831 652.867 780.598 653.1 780.598 653.388C780.598 653.675 780.831 653.908 781.118 653.908Z" fill="black"/>
<path opacity="0.8" d="M774.946 654.658C775.234 654.658 775.467 654.425 775.467 654.138C775.467 653.85 775.234 653.617 774.946 653.617C774.659 653.617 774.426 653.85 774.426 654.138C774.426 654.425 774.659 654.658 774.946 654.658Z" fill="black"/>
<path opacity="0.8" d="M768.557 654.951C768.845 654.951 769.078 654.718 769.078 654.431C769.078 654.143 768.845 653.91 768.557 653.91C768.27 653.91 768.037 654.143 768.037 654.431C768.037 654.718 768.27 654.951 768.557 654.951Z" fill="black"/>
<path opacity="0.8" d="M759.384 653.689C759.671 653.689 759.904 653.456 759.904 653.169C759.904 652.881 759.671 652.648 759.384 652.648C759.096 652.648 758.863 652.881 758.863 653.169C758.863 653.456 759.096 653.689 759.384 653.689Z" fill="black"/>
<path opacity="0.8" d="M762.423 654.431C762.71 654.431 762.943 654.198 762.943 653.911C762.943 653.624 762.71 653.391 762.423 653.391C762.135 653.391 761.902 653.624 761.902 653.911C761.902 654.198 762.135 654.431 762.423 654.431Z" fill="black"/>
<path opacity="0.8" d="M753.706 652.65C753.993 652.65 754.226 652.417 754.226 652.13C754.226 651.842 753.993 651.609 753.706 651.609C753.419 651.609 753.186 651.842 753.186 652.13C753.186 652.417 753.419 652.65 753.706 652.65Z" fill="black"/>
<path opacity="0.8" d="M756.44 653.17C756.728 653.17 756.961 652.937 756.961 652.649C756.961 652.362 756.728 652.129 756.44 652.129C756.153 652.129 755.92 652.362 755.92 652.649C755.92 652.937 756.153 653.17 756.44 653.17Z" fill="black"/>
<path opacity="0.8" d="M750.71 651.607C750.997 651.607 751.23 651.374 751.23 651.087C751.23 650.799 750.997 650.566 750.71 650.566C750.422 650.566 750.189 650.799 750.189 651.087C750.189 651.374 750.422 651.607 750.71 651.607Z" fill="black"/>
<path opacity="0.8" d="M783.981 653.388C784.269 653.388 784.502 653.156 784.502 652.868C784.502 652.581 784.269 652.348 783.981 652.348C783.694 652.348 783.461 652.581 783.461 652.868C783.461 653.156 783.694 653.388 783.981 653.388Z" fill="black"/>
<path opacity="0.8" d="M777.942 654.431C778.23 654.431 778.463 654.198 778.463 653.911C778.463 653.624 778.23 653.391 777.942 653.391C777.655 653.391 777.422 653.624 777.422 653.911C777.422 654.198 777.655 654.431 777.942 654.431Z" fill="black"/>
<path opacity="0.8" d="M771.391 654.951C771.679 654.951 771.912 654.718 771.912 654.431C771.912 654.143 771.679 653.91 771.391 653.91C771.104 653.91 770.871 654.143 770.871 654.431C770.871 654.718 771.104 654.951 771.391 654.951Z" fill="black"/>
<path opacity="0.8" d="M765.431 654.951C765.718 654.951 765.951 654.718 765.951 654.431C765.951 654.143 765.718 653.91 765.431 653.91C765.143 653.91 764.91 654.143 764.91 654.431C764.91 654.718 765.143 654.951 765.431 654.951Z" fill="black"/>
</g>
<g opacity="0.8">
<path opacity="0.8" d="M792.876 653.431C793.163 653.431 793.396 653.198 793.396 652.911C793.396 652.624 793.163 652.391 792.876 652.391C792.588 652.391 792.355 652.624 792.355 652.911C792.355 653.198 792.588 653.431 792.876 653.431Z" fill="black"/>
<path opacity="0.8" d="M790.235 654.17C790.523 654.17 790.756 653.937 790.756 653.649C790.756 653.362 790.523 653.129 790.235 653.129C789.948 653.129 789.715 653.362 789.715 653.649C789.715 653.937 789.948 654.17 790.235 654.17Z" fill="black"/>
<path opacity="0.8" d="M786.97 655.213C787.257 655.213 787.49 654.98 787.49 654.692C787.49 654.405 787.257 654.172 786.97 654.172C786.682 654.172 786.449 654.405 786.449 654.692C786.449 654.98 786.682 655.213 786.97 655.213Z" fill="black"/>
<path opacity="0.8" d="M781.118 656.471C781.405 656.471 781.638 656.238 781.638 655.95C781.638 655.663 781.405 655.43 781.118 655.43C780.831 655.43 780.598 655.663 780.598 655.95C780.598 656.238 780.831 656.471 781.118 656.471Z" fill="black"/>
<path opacity="0.8" d="M774.946 657.221C775.234 657.221 775.467 656.988 775.467 656.7C775.467 656.413 775.234 656.18 774.946 656.18C774.659 656.18 774.426 656.413 774.426 656.7C774.426 656.988 774.659 657.221 774.946 657.221Z" fill="black"/>
<path opacity="0.8" d="M768.557 657.514C768.845 657.514 769.078 657.281 769.078 656.993C769.078 656.706 768.845 656.473 768.557 656.473C768.27 656.473 768.037 656.706 768.037 656.993C768.037 657.281 768.27 657.514 768.557 657.514Z" fill="black"/>
<path opacity="0.8" d="M759.384 656.252C759.671 656.252 759.904 656.019 759.904 655.731C759.904 655.444 759.671 655.211 759.384 655.211C759.096 655.211 758.863 655.444 758.863 655.731C758.863 656.019 759.096 656.252 759.384 656.252Z" fill="black"/>
<path opacity="0.8" d="M762.423 656.994C762.71 656.994 762.943 656.761 762.943 656.474C762.943 656.186 762.71 655.953 762.423 655.953C762.135 655.953 761.902 656.186 761.902 656.474C761.902 656.761 762.135 656.994 762.423 656.994Z" fill="black"/>
<path opacity="0.8" d="M753.706 655.213C753.993 655.213 754.226 654.98 754.226 654.692C754.226 654.405 753.993 654.172 753.706 654.172C753.419 654.172 753.186 654.405 753.186 654.692C753.186 654.98 753.419 655.213 753.706 655.213Z" fill="black"/>
<path opacity="0.8" d="M756.44 655.732C756.728 655.732 756.961 655.499 756.961 655.212C756.961 654.924 756.728 654.691 756.44 654.691C756.153 654.691 755.92 654.924 755.92 655.212C755.92 655.499 756.153 655.732 756.44 655.732Z" fill="black"/>
<path opacity="0.8" d="M750.71 654.17C750.997 654.17 751.23 653.937 751.23 653.649C751.23 653.362 750.997 653.129 750.71 653.129C750.422 653.129 750.189 653.362 750.189 653.649C750.189 653.937 750.422 654.17 750.71 654.17Z" fill="black"/>
<path opacity="0.8" d="M783.981 655.951C784.269 655.951 784.502 655.718 784.502 655.431C784.502 655.143 784.269 654.91 783.981 654.91C783.694 654.91 783.461 655.143 783.461 655.431C783.461 655.718 783.694 655.951 783.981 655.951Z" fill="black"/>
<path opacity="0.8" d="M777.942 656.994C778.23 656.994 778.463 656.761 778.463 656.474C778.463 656.186 778.23 655.953 777.942 655.953C777.655 655.953 777.422 656.186 777.422 656.474C777.422 656.761 777.655 656.994 777.942 656.994Z" fill="black"/>
<path opacity="0.8" d="M771.391 657.514C771.679 657.514 771.912 657.281 771.912 656.993C771.912 656.706 771.679 656.473 771.391 656.473C771.104 656.473 770.871 656.706 770.871 656.993C770.871 657.281 771.104 657.514 771.391 657.514Z" fill="black"/>
<path opacity="0.8" d="M765.431 657.514C765.718 657.514 765.951 657.281 765.951 656.993C765.951 656.706 765.718 656.473 765.431 656.473C765.143 656.473 764.91 656.706 764.91 656.993C764.91 657.281 765.143 657.514 765.431 657.514Z" fill="black"/>
</g>
<g opacity="0.8">
<path opacity="0.8" d="M792.876 655.99C793.163 655.99 793.396 655.757 793.396 655.47C793.396 655.182 793.163 654.949 792.876 654.949C792.588 654.949 792.355 655.182 792.355 655.47C792.355 655.757 792.588 655.99 792.876 655.99Z" fill="black"/>
<path opacity="0.8" d="M790.235 656.728C790.523 656.728 790.756 656.495 790.756 656.208C790.756 655.921 790.523 655.688 790.235 655.688C789.948 655.688 789.715 655.921 789.715 656.208C789.715 656.495 789.948 656.728 790.235 656.728Z" fill="black"/>
<path opacity="0.8" d="M786.97 657.771C787.257 657.771 787.49 657.538 787.49 657.251C787.49 656.963 787.257 656.73 786.97 656.73C786.682 656.73 786.449 656.963 786.449 657.251C786.449 657.538 786.682 657.771 786.97 657.771Z" fill="black"/>
<path opacity="0.8" d="M781.118 659.029C781.405 659.029 781.638 658.796 781.638 658.509C781.638 658.221 781.405 657.988 781.118 657.988C780.831 657.988 780.598 658.221 780.598 658.509C780.598 658.796 780.831 659.029 781.118 659.029Z" fill="black"/>
<path opacity="0.8" d="M774.946 659.779C775.234 659.779 775.467 659.546 775.467 659.259C775.467 658.971 775.234 658.738 774.946 658.738C774.659 658.738 774.426 658.971 774.426 659.259C774.426 659.546 774.659 659.779 774.946 659.779Z" fill="black"/>
<path opacity="0.8" d="M768.557 660.072C768.845 660.072 769.078 659.839 769.078 659.552C769.078 659.264 768.845 659.031 768.557 659.031C768.27 659.031 768.037 659.264 768.037 659.552C768.037 659.839 768.27 660.072 768.557 660.072Z" fill="black"/>
<path opacity="0.8" d="M759.384 658.81C759.671 658.81 759.904 658.577 759.904 658.29C759.904 658.002 759.671 657.77 759.384 657.77C759.096 657.77 758.863 658.002 758.863 658.29C758.863 658.577 759.096 658.81 759.384 658.81Z" fill="black"/>
<path opacity="0.8" d="M762.423 659.553C762.71 659.553 762.943 659.32 762.943 659.032C762.943 658.745 762.71 658.512 762.423 658.512C762.135 658.512 761.902 658.745 761.902 659.032C761.902 659.32 762.135 659.553 762.423 659.553Z" fill="black"/>
<path opacity="0.8" d="M753.706 657.771C753.993 657.771 754.226 657.538 754.226 657.251C754.226 656.963 753.993 656.73 753.706 656.73C753.419 656.73 753.186 656.963 753.186 657.251C753.186 657.538 753.419 657.771 753.706 657.771Z" fill="black"/>
<path opacity="0.8" d="M756.44 658.291C756.728 658.291 756.961 658.058 756.961 657.77C756.961 657.483 756.728 657.25 756.44 657.25C756.153 657.25 755.92 657.483 755.92 657.77C755.92 658.058 756.153 658.291 756.44 658.291Z" fill="black"/>
<path opacity="0.8" d="M750.71 656.728C750.997 656.728 751.23 656.495 751.23 656.208C751.23 655.921 750.997 655.688 750.71 655.688C750.422 655.688 750.189 655.921 750.189 656.208C750.189 656.495 750.422 656.728 750.71 656.728Z" fill="black"/>
<path opacity="0.8" d="M783.981 658.51C784.269 658.51 784.502 658.277 784.502 657.989C784.502 657.702 784.269 657.469 783.981 657.469C783.694 657.469 783.461 657.702 783.461 657.989C783.461 658.277 783.694 658.51 783.981 658.51Z" fill="black"/>
<path opacity="0.8" d="M777.942 659.553C778.23 659.553 778.463 659.32 778.463 659.032C778.463 658.745 778.23 658.512 777.942 658.512C777.655 658.512 777.422 658.745 777.422 659.032C777.422 659.32 777.655 659.553 777.942 659.553Z" fill="black"/>
<path opacity="0.8" d="M771.391 660.072C771.679 660.072 771.912 659.839 771.912 659.552C771.912 659.264 771.679 659.031 771.391 659.031C771.104 659.031 770.871 659.264 770.871 659.552C770.871 659.839 771.104 660.072 771.391 660.072Z" fill="black"/>
<path opacity="0.8" d="M765.431 660.072C765.718 660.072 765.951 659.839 765.951 659.552C765.951 659.264 765.718 659.031 765.431 659.031C765.143 659.031 764.91 659.264 764.91 659.552C764.91 659.839 765.143 660.072 765.431 660.072Z" fill="black"/>
</g>
<g opacity="0.8">
<path opacity="0.8" d="M792.876 658.553C793.163 658.553 793.396 658.32 793.396 658.032C793.396 657.745 793.163 657.512 792.876 657.512C792.588 657.512 792.355 657.745 792.355 658.032C792.355 658.32 792.588 658.553 792.876 658.553Z" fill="black"/>
<path opacity="0.8" d="M790.235 659.291C790.523 659.291 790.756 659.058 790.756 658.77C790.756 658.483 790.523 658.25 790.235 658.25C789.948 658.25 789.715 658.483 789.715 658.77C789.715 659.058 789.948 659.291 790.235 659.291Z" fill="black"/>
<path opacity="0.8" d="M786.97 660.334C787.257 660.334 787.49 660.101 787.49 659.813C787.49 659.526 787.257 659.293 786.97 659.293C786.682 659.293 786.449 659.526 786.449 659.813C786.449 660.101 786.682 660.334 786.97 660.334Z" fill="black"/>
<path opacity="0.8" d="M781.118 661.592C781.405 661.592 781.638 661.359 781.638 661.071C781.638 660.784 781.405 660.551 781.118 660.551C780.831 660.551 780.598 660.784 780.598 661.071C780.598 661.359 780.831 661.592 781.118 661.592Z" fill="black"/>
<path opacity="0.8" d="M774.946 662.342C775.234 662.342 775.467 662.109 775.467 661.821C775.467 661.534 775.234 661.301 774.946 661.301C774.659 661.301 774.426 661.534 774.426 661.821C774.426 662.109 774.659 662.342 774.946 662.342Z" fill="black"/>
<path opacity="0.8" d="M768.557 662.635C768.845 662.635 769.078 662.402 769.078 662.114C769.078 661.827 768.845 661.594 768.557 661.594C768.27 661.594 768.037 661.827 768.037 662.114C768.037 662.402 768.27 662.635 768.557 662.635Z" fill="black"/>
<path opacity="0.8" d="M759.384 661.373C759.671 661.373 759.904 661.14 759.904 660.852C759.904 660.565 759.671 660.332 759.384 660.332C759.096 660.332 758.863 660.565 758.863 660.852C758.863 661.14 759.096 661.373 759.384 661.373Z" fill="black"/>
<path opacity="0.8" d="M762.423 662.115C762.71 662.115 762.943 661.882 762.943 661.595C762.943 661.307 762.71 661.074 762.423 661.074C762.135 661.074 761.902 661.307 761.902 661.595C761.902 661.882 762.135 662.115 762.423 662.115Z" fill="black"/>
<path opacity="0.8" d="M753.706 660.334C753.993 660.334 754.226 660.101 754.226 659.813C754.226 659.526 753.993 659.293 753.706 659.293C753.419 659.293 753.186 659.526 753.186 659.813C753.186 660.101 753.419 660.334 753.706 660.334Z" fill="black"/>
<path opacity="0.8" d="M756.44 660.853C756.728 660.853 756.961 660.62 756.961 660.333C756.961 660.045 756.728 659.812 756.44 659.812C756.153 659.812 755.92 660.045 755.92 660.333C755.92 660.62 756.153 660.853 756.44 660.853Z" fill="black"/>
<path opacity="0.8" d="M750.71 659.291C750.997 659.291 751.23 659.058 751.23 658.77C751.23 658.483 750.997 658.25 750.71 658.25C750.422 658.25 750.189 658.483 750.189 658.77C750.189 659.058 750.422 659.291 750.71 659.291Z" fill="black"/>
<path opacity="0.8" d="M783.981 661.072C784.269 661.072 784.502 660.839 784.502 660.552C784.502 660.264 784.269 660.031 783.981 660.031C783.694 660.031 783.461 660.264 783.461 660.552C783.461 660.839 783.694 661.072 783.981 661.072Z" fill="black"/>
<path opacity="0.8" d="M777.942 662.115C778.23 662.115 778.463 661.882 778.463 661.595C778.463 661.307 778.23 661.074 777.942 661.074C777.655 661.074 777.422 661.307 777.422 661.595C777.422 661.882 777.655 662.115 777.942 662.115Z" fill="black"/>
<path opacity="0.8" d="M771.391 662.635C771.679 662.635 771.912 662.402 771.912 662.114C771.912 661.827 771.679 661.594 771.391 661.594C771.104 661.594 770.871 661.827 770.871 662.114C770.871 662.402 771.104 662.635 771.391 662.635Z" fill="black"/>
<path opacity="0.8" d="M765.431 662.635C765.718 662.635 765.951 662.402 765.951 662.114C765.951 661.827 765.718 661.594 765.431 661.594C765.143 661.594 764.91 661.827 764.91 662.114C764.91 662.402 765.143 662.635 765.431 662.635Z" fill="black"/>
</g>
<g opacity="0.8">
<path opacity="0.8" d="M792.876 661.111C793.163 661.111 793.396 660.878 793.396 660.591C793.396 660.303 793.163 660.07 792.876 660.07C792.588 660.07 792.355 660.303 792.355 660.591C792.355 660.878 792.588 661.111 792.876 661.111Z" fill="black"/>
<path opacity="0.8" d="M790.235 661.849C790.523 661.849 790.756 661.616 790.756 661.329C790.756 661.042 790.523 660.809 790.235 660.809C789.948 660.809 789.715 661.042 789.715 661.329C789.715 661.616 789.948 661.849 790.235 661.849Z" fill="black"/>
<path opacity="0.8" d="M786.97 662.892C787.257 662.892 787.49 662.659 787.49 662.372C787.49 662.085 787.257 661.852 786.97 661.852C786.682 661.852 786.449 662.085 786.449 662.372C786.449 662.659 786.682 662.892 786.97 662.892Z" fill="black"/>
<path opacity="0.8" d="M781.118 664.15C781.405 664.15 781.638 663.917 781.638 663.63C781.638 663.342 781.405 663.109 781.118 663.109C780.831 663.109 780.598 663.342 780.598 663.63C780.598 663.917 780.831 664.15 781.118 664.15Z" fill="black"/>
<path opacity="0.8" d="M774.946 664.9C775.234 664.9 775.467 664.667 775.467 664.38C775.467 664.092 775.234 663.859 774.946 663.859C774.659 663.859 774.426 664.092 774.426 664.38C774.426 664.667 774.659 664.9 774.946 664.9Z" fill="black"/>
<path opacity="0.8" d="M768.557 665.193C768.845 665.193 769.078 664.96 769.078 664.673C769.078 664.385 768.845 664.152 768.557 664.152C768.27 664.152 768.037 664.385 768.037 664.673C768.037 664.96 768.27 665.193 768.557 665.193Z" fill="black"/>
<path opacity="0.8" d="M759.384 663.931C759.671 663.931 759.904 663.698 759.904 663.411C759.904 663.124 759.671 662.891 759.384 662.891C759.096 662.891 758.863 663.124 758.863 663.411C758.863 663.698 759.096 663.931 759.384 663.931Z" fill="black"/>
<path opacity="0.8" d="M762.423 664.674C762.71 664.674 762.943 664.441 762.943 664.153C762.943 663.866 762.71 663.633 762.423 663.633C762.135 663.633 761.902 663.866 761.902 664.153C761.902 664.441 762.135 664.674 762.423 664.674Z" fill="black"/>
<path opacity="0.8" d="M753.706 662.892C753.993 662.892 754.226 662.659 754.226 662.372C754.226 662.085 753.993 661.852 753.706 661.852C753.419 661.852 753.186 662.085 753.186 662.372C753.186 662.659 753.419 662.892 753.706 662.892Z" fill="black"/>
<path opacity="0.8" d="M756.44 663.412C756.728 663.412 756.961 663.179 756.961 662.892C756.961 662.604 756.728 662.371 756.44 662.371C756.153 662.371 755.92 662.604 755.92 662.892C755.92 663.179 756.153 663.412 756.44 663.412Z" fill="black"/>
<path opacity="0.8" d="M750.71 661.849C750.997 661.849 751.23 661.616 751.23 661.329C751.23 661.042 750.997 660.809 750.71 660.809C750.422 660.809 750.189 661.042 750.189 661.329C750.189 661.616 750.422 661.849 750.71 661.849Z" fill="black"/>
<path opacity="0.8" d="M783.981 663.631C784.269 663.631 784.502 663.398 784.502 663.11C784.502 662.823 784.269 662.59 783.981 662.59C783.694 662.59 783.461 662.823 783.461 663.11C783.461 663.398 783.694 663.631 783.981 663.631Z" fill="black"/>
<path opacity="0.8" d="M777.942 664.674C778.23 664.674 778.463 664.441 778.463 664.153C778.463 663.866 778.23 663.633 777.942 663.633C777.655 663.633 777.422 663.866 777.422 664.153C777.422 664.441 777.655 664.674 777.942 664.674Z" fill="black"/>
<path opacity="0.8" d="M771.391 665.193C771.679 665.193 771.912 664.96 771.912 664.673C771.912 664.385 771.679 664.152 771.391 664.152C771.104 664.152 770.871 664.385 770.871 664.673C770.871 664.96 771.104 665.193 771.391 665.193Z" fill="black"/>
<path opacity="0.8" d="M765.431 665.193C765.718 665.193 765.951 664.96 765.951 664.673C765.951 664.385 765.718 664.152 765.431 664.152C765.143 664.152 764.91 664.385 764.91 664.673C764.91 664.96 765.143 665.193 765.431 665.193Z" fill="black"/>
</g>
<g opacity="0.8">
<path opacity="0.8" d="M792.876 663.674C793.163 663.674 793.396 663.441 793.396 663.153C793.396 662.866 793.163 662.633 792.876 662.633C792.588 662.633 792.355 662.866 792.355 663.153C792.355 663.441 792.588 663.674 792.876 663.674Z" fill="black"/>
<path opacity="0.8" d="M790.235 664.412C790.523 664.412 790.756 664.179 790.756 663.892C790.756 663.604 790.523 663.371 790.235 663.371C789.948 663.371 789.715 663.604 789.715 663.892C789.715 664.179 789.948 664.412 790.235 664.412Z" fill="black"/>
<path opacity="0.8" d="M786.97 665.455C787.257 665.455 787.49 665.222 787.49 664.934C787.49 664.647 787.257 664.414 786.97 664.414C786.682 664.414 786.449 664.647 786.449 664.934C786.449 665.222 786.682 665.455 786.97 665.455Z" fill="black"/>
<path opacity="0.8" d="M781.118 666.713C781.405 666.713 781.638 666.48 781.638 666.192C781.638 665.905 781.405 665.672 781.118 665.672C780.831 665.672 780.598 665.905 780.598 666.192C780.598 666.48 780.831 666.713 781.118 666.713Z" fill="black"/>
<path opacity="0.8" d="M774.946 667.463C775.234 667.463 775.467 667.23 775.467 666.942C775.467 666.655 775.234 666.422 774.946 666.422C774.659 666.422 774.426 666.655 774.426 666.942C774.426 667.23 774.659 667.463 774.946 667.463Z" fill="black"/>
<path opacity="0.8" d="M768.557 667.756C768.845 667.756 769.078 667.523 769.078 667.235C769.078 666.948 768.845 666.715 768.557 666.715C768.27 666.715 768.037 666.948 768.037 667.235C768.037 667.523 768.27 667.756 768.557 667.756Z" fill="black"/>
<path opacity="0.8" d="M759.384 666.494C759.671 666.494 759.904 666.261 759.904 665.974C759.904 665.686 759.671 665.453 759.384 665.453C759.096 665.453 758.863 665.686 758.863 665.974C758.863 666.261 759.096 666.494 759.384 666.494Z" fill="black"/>
<path opacity="0.8" d="M762.423 667.236C762.71 667.236 762.943 667.003 762.943 666.716C762.943 666.428 762.71 666.195 762.423 666.195C762.135 666.195 761.902 666.428 761.902 666.716C761.902 667.003 762.135 667.236 762.423 667.236Z" fill="black"/>
<path opacity="0.8" d="M753.706 665.455C753.993 665.455 754.226 665.222 754.226 664.934C754.226 664.647 753.993 664.414 753.706 664.414C753.419 664.414 753.186 664.647 753.186 664.934C753.186 665.222 753.419 665.455 753.706 665.455Z" fill="black"/>
<path opacity="0.8" d="M756.44 665.974C756.728 665.974 756.961 665.741 756.961 665.454C756.961 665.167 756.728 664.934 756.44 664.934C756.153 664.934 755.92 665.167 755.92 665.454C755.92 665.741 756.153 665.974 756.44 665.974Z" fill="black"/>
<path opacity="0.8" d="M750.71 664.412C750.997 664.412 751.23 664.179 751.23 663.892C751.23 663.604 750.997 663.371 750.71 663.371C750.422 663.371 750.189 663.604 750.189 663.892C750.189 664.179 750.422 664.412 750.71 664.412Z" fill="black"/>
<path opacity="0.8" d="M783.981 666.193C784.269 666.193 784.502 665.96 784.502 665.673C784.502 665.385 784.269 665.152 783.981 665.152C783.694 665.152 783.461 665.385 783.461 665.673C783.461 665.96 783.694 666.193 783.981 666.193Z" fill="black"/>
<path opacity="0.8" d="M777.942 667.236C778.23 667.236 778.463 667.003 778.463 666.716C778.463 666.428 778.23 666.195 777.942 666.195C777.655 666.195 777.422 666.428 777.422 666.716C777.422 667.003 777.655 667.236 777.942 667.236Z" fill="black"/>
<path opacity="0.8" d="M771.391 667.756C771.679 667.756 771.912 667.523 771.912 667.235C771.912 666.948 771.679 666.715 771.391 666.715C771.104 666.715 770.871 666.948 770.871 667.235C770.871 667.523 771.104 667.756 771.391 667.756Z" fill="black"/>
<path opacity="0.8" d="M765.431 667.756C765.718 667.756 765.951 667.523 765.951 667.235C765.951 666.948 765.718 666.715 765.431 666.715C765.143 666.715 764.91 666.948 764.91 667.235C764.91 667.523 765.143 667.756 765.431 667.756Z" fill="black"/>
</g>
<g opacity="0.8">
<path opacity="0.8" d="M792.876 666.236C793.163 666.236 793.396 666.003 793.396 665.716C793.396 665.428 793.163 665.195 792.876 665.195C792.588 665.195 792.355 665.428 792.355 665.716C792.355 666.003 792.588 666.236 792.876 666.236Z" fill="black"/>
<path opacity="0.8" d="M790.235 666.974C790.523 666.974 790.756 666.741 790.756 666.454C790.756 666.167 790.523 665.934 790.235 665.934C789.948 665.934 789.715 666.167 789.715 666.454C789.715 666.741 789.948 666.974 790.235 666.974Z" fill="black"/>
<path opacity="0.8" d="M786.97 668.017C787.257 668.017 787.49 667.784 787.49 667.497C787.49 667.21 787.257 666.977 786.97 666.977C786.682 666.977 786.449 667.21 786.449 667.497C786.449 667.784 786.682 668.017 786.97 668.017Z" fill="black"/>
<path opacity="0.8" d="M781.118 669.275C781.405 669.275 781.638 669.042 781.638 668.755C781.638 668.467 781.405 668.234 781.118 668.234C780.831 668.234 780.598 668.467 780.598 668.755C780.598 669.042 780.831 669.275 781.118 669.275Z" fill="black"/>
<path opacity="0.8" d="M774.946 670.025C775.234 670.025 775.467 669.792 775.467 669.505C775.467 669.217 775.234 668.984 774.946 668.984C774.659 668.984 774.426 669.217 774.426 669.505C774.426 669.792 774.659 670.025 774.946 670.025Z" fill="black"/>
<path opacity="0.8" d="M768.557 670.318C768.845 670.318 769.078 670.085 769.078 669.798C769.078 669.51 768.845 669.277 768.557 669.277C768.27 669.277 768.037 669.51 768.037 669.798C768.037 670.085 768.27 670.318 768.557 670.318Z" fill="black"/>
<path opacity="0.8" d="M759.384 669.057C759.671 669.057 759.904 668.823 759.904 668.536C759.904 668.249 759.671 668.016 759.384 668.016C759.096 668.016 758.863 668.249 758.863 668.536C758.863 668.823 759.096 669.057 759.384 669.057Z" fill="black"/>
<path opacity="0.8" d="M762.423 669.799C762.71 669.799 762.943 669.566 762.943 669.278C762.943 668.991 762.71 668.758 762.423 668.758C762.135 668.758 761.902 668.991 761.902 669.278C761.902 669.566 762.135 669.799 762.423 669.799Z" fill="black"/>
<path opacity="0.8" d="M753.706 668.017C753.993 668.017 754.226 667.784 754.226 667.497C754.226 667.21 753.993 666.977 753.706 666.977C753.419 666.977 753.186 667.21 753.186 667.497C753.186 667.784 753.419 668.017 753.706 668.017Z" fill="black"/>
<path opacity="0.8" d="M756.44 668.537C756.728 668.537 756.961 668.304 756.961 668.016C756.961 667.729 756.728 667.496 756.44 667.496C756.153 667.496 755.92 667.729 755.92 668.016C755.92 668.304 756.153 668.537 756.44 668.537Z" fill="black"/>
<path opacity="0.8" d="M750.71 666.974C750.997 666.974 751.23 666.741 751.23 666.454C751.23 666.167 750.997 665.934 750.71 665.934C750.422 665.934 750.189 666.167 750.189 666.454C750.189 666.741 750.422 666.974 750.71 666.974Z" fill="black"/>
<path opacity="0.8" d="M783.981 668.756C784.269 668.756 784.502 668.523 784.502 668.235C784.502 667.948 784.269 667.715 783.981 667.715C783.694 667.715 783.461 667.948 783.461 668.235C783.461 668.523 783.694 668.756 783.981 668.756Z" fill="black"/>
<path opacity="0.8" d="M777.942 669.799C778.23 669.799 778.463 669.566 778.463 669.278C778.463 668.991 778.23 668.758 777.942 668.758C777.655 668.758 777.422 668.991 777.422 669.278C777.422 669.566 777.655 669.799 777.942 669.799Z" fill="black"/>
<path opacity="0.8" d="M771.391 670.318C771.679 670.318 771.912 670.085 771.912 669.798C771.912 669.51 771.679 669.277 771.391 669.277C771.104 669.277 770.871 669.51 770.871 669.798C770.871 670.085 771.104 670.318 771.391 670.318Z" fill="black"/>
<path opacity="0.8" d="M765.431 670.318C765.718 670.318 765.951 670.085 765.951 669.798C765.951 669.51 765.718 669.277 765.431 669.277C765.143 669.277 764.91 669.51 764.91 669.798C764.91 670.085 765.143 670.318 765.431 670.318Z" fill="black"/>
</g>
<g opacity="0.8">
<path opacity="0.8" d="M792.876 668.795C793.163 668.795 793.396 668.562 793.396 668.274C793.396 667.987 793.163 667.754 792.876 667.754C792.588 667.754 792.355 667.987 792.355 668.274C792.355 668.562 792.588 668.795 792.876 668.795Z" fill="black"/>
<path opacity="0.8" d="M790.235 669.533C790.523 669.533 790.756 669.3 790.756 669.013C790.756 668.725 790.523 668.492 790.235 668.492C789.948 668.492 789.715 668.725 789.715 669.013C789.715 669.3 789.948 669.533 790.235 669.533Z" fill="black"/>
<path opacity="0.8" d="M786.97 670.576C787.257 670.576 787.49 670.343 787.49 670.056C787.49 669.768 787.257 669.535 786.97 669.535C786.682 669.535 786.449 669.768 786.449 670.056C786.449 670.343 786.682 670.576 786.97 670.576Z" fill="black"/>
<path opacity="0.8" d="M781.118 671.834C781.405 671.834 781.638 671.601 781.638 671.313C781.638 671.026 781.405 670.793 781.118 670.793C780.831 670.793 780.598 671.026 780.598 671.313C780.598 671.601 780.831 671.834 781.118 671.834Z" fill="black"/>
<path opacity="0.8" d="M774.946 672.584C775.234 672.584 775.467 672.351 775.467 672.063C775.467 671.776 775.234 671.543 774.946 671.543C774.659 671.543 774.426 671.776 774.426 672.063C774.426 672.351 774.659 672.584 774.946 672.584Z" fill="black"/>
<path opacity="0.8" d="M768.557 672.877C768.845 672.877 769.078 672.644 769.078 672.356C769.078 672.069 768.845 671.836 768.557 671.836C768.27 671.836 768.037 672.069 768.037 672.356C768.037 672.644 768.27 672.877 768.557 672.877Z" fill="black"/>
<path opacity="0.8" d="M759.384 671.615C759.671 671.615 759.904 671.382 759.904 671.095C759.904 670.807 759.671 670.574 759.384 670.574C759.096 670.574 758.863 670.807 758.863 671.095C758.863 671.382 759.096 671.615 759.384 671.615Z" fill="black"/>
<path opacity="0.8" d="M762.423 672.357C762.71 672.357 762.943 672.124 762.943 671.837C762.943 671.549 762.71 671.316 762.423 671.316C762.135 671.316 761.902 671.549 761.902 671.837C761.902 672.124 762.135 672.357 762.423 672.357Z" fill="black"/>
<path opacity="0.8" d="M753.706 670.576C753.993 670.576 754.226 670.343 754.226 670.056C754.226 669.768 753.993 669.535 753.706 669.535C753.419 669.535 753.186 669.768 753.186 670.056C753.186 670.343 753.419 670.576 753.706 670.576Z" fill="black"/>
<path opacity="0.8" d="M756.44 671.096C756.728 671.096 756.961 670.862 756.961 670.575C756.961 670.288 756.728 670.055 756.44 670.055C756.153 670.055 755.92 670.288 755.92 670.575C755.92 670.862 756.153 671.096 756.44 671.096Z" fill="black"/>
<path opacity="0.8" d="M750.71 669.533C750.997 669.533 751.23 669.3 751.23 669.013C751.23 668.725 750.997 668.492 750.71 668.492C750.422 668.492 750.189 668.725 750.189 669.013C750.189 669.3 750.422 669.533 750.71 669.533Z" fill="black"/>
<path opacity="0.8" d="M783.981 671.314C784.269 671.314 784.502 671.081 784.502 670.794C784.502 670.506 784.269 670.273 783.981 670.273C783.694 670.273 783.461 670.506 783.461 670.794C783.461 671.081 783.694 671.314 783.981 671.314Z" fill="black"/>
<path opacity="0.8" d="M777.942 672.357C778.23 672.357 778.463 672.124 778.463 671.837C778.463 671.549 778.23 671.316 777.942 671.316C777.655 671.316 777.422 671.549 777.422 671.837C777.422 672.124 777.655 672.357 777.942 672.357Z" fill="black"/>
<path opacity="0.8" d="M771.391 672.877C771.679 672.877 771.912 672.644 771.912 672.356C771.912 672.069 771.679 671.836 771.391 671.836C771.104 671.836 770.871 672.069 770.871 672.356C770.871 672.644 771.104 672.877 771.391 672.877Z" fill="black"/>
<path opacity="0.8" d="M765.431 672.877C765.718 672.877 765.951 672.644 765.951 672.356C765.951 672.069 765.718 671.836 765.431 671.836C765.143 671.836 764.91 672.069 764.91 672.356C764.91 672.644 765.143 672.877 765.431 672.877Z" fill="black"/>
</g>
<g opacity="0.8">
<path opacity="0.8" d="M792.876 671.357C793.163 671.357 793.396 671.124 793.396 670.837C793.396 670.549 793.163 670.316 792.876 670.316C792.588 670.316 792.355 670.549 792.355 670.837C792.355 671.124 792.588 671.357 792.876 671.357Z" fill="black"/>
<path opacity="0.8" d="M790.235 672.096C790.523 672.096 790.756 671.862 790.756 671.575C790.756 671.288 790.523 671.055 790.235 671.055C789.948 671.055 789.715 671.288 789.715 671.575C789.715 671.862 789.948 672.096 790.235 672.096Z" fill="black"/>
<path opacity="0.8" d="M786.97 673.138C787.257 673.138 787.49 672.905 787.49 672.618C787.49 672.331 787.257 672.098 786.97 672.098C786.682 672.098 786.449 672.331 786.449 672.618C786.449 672.905 786.682 673.138 786.97 673.138Z" fill="black"/>
<path opacity="0.8" d="M781.118 674.396C781.405 674.396 781.638 674.163 781.638 673.876C781.638 673.588 781.405 673.355 781.118 673.355C780.831 673.355 780.598 673.588 780.598 673.876C780.598 674.163 780.831 674.396 781.118 674.396Z" fill="black"/>
<path opacity="0.8" d="M774.946 675.146C775.234 675.146 775.467 674.913 775.467 674.626C775.467 674.338 775.234 674.105 774.946 674.105C774.659 674.105 774.426 674.338 774.426 674.626C774.426 674.913 774.659 675.146 774.946 675.146Z" fill="black"/>
<path opacity="0.8" d="M768.557 675.439C768.845 675.439 769.078 675.206 769.078 674.919C769.078 674.631 768.845 674.398 768.557 674.398C768.27 674.398 768.037 674.631 768.037 674.919C768.037 675.206 768.27 675.439 768.557 675.439Z" fill="black"/>
<path opacity="0.8" d="M759.384 674.178C759.671 674.178 759.904 673.945 759.904 673.657C759.904 673.37 759.671 673.137 759.384 673.137C759.096 673.137 758.863 673.37 758.863 673.657C758.863 673.945 759.096 674.178 759.384 674.178Z" fill="black"/>
<path opacity="0.8" d="M762.423 674.92C762.71 674.92 762.943 674.687 762.943 674.399C762.943 674.112 762.71 673.879 762.423 673.879C762.135 673.879 761.902 674.112 761.902 674.399C761.902 674.687 762.135 674.92 762.423 674.92Z" fill="black"/>
<path opacity="0.8" d="M753.706 673.138C753.993 673.138 754.226 672.905 754.226 672.618C754.226 672.331 753.993 672.098 753.706 672.098C753.419 672.098 753.186 672.331 753.186 672.618C753.186 672.905 753.419 673.138 753.706 673.138Z" fill="black"/>
<path opacity="0.8" d="M756.44 673.658C756.728 673.658 756.961 673.425 756.961 673.138C756.961 672.85 756.728 672.617 756.44 672.617C756.153 672.617 755.92 672.85 755.92 673.138C755.92 673.425 756.153 673.658 756.44 673.658Z" fill="black"/>
<path opacity="0.8" d="M750.71 672.096C750.997 672.096 751.23 671.862 751.23 671.575C751.23 671.288 750.997 671.055 750.71 671.055C750.422 671.055 750.189 671.288 750.189 671.575C750.189 671.862 750.422 672.096 750.71 672.096Z" fill="black"/>
<path opacity="0.8" d="M783.981 673.877C784.269 673.877 784.502 673.644 784.502 673.356C784.502 673.069 784.269 672.836 783.981 672.836C783.694 672.836 783.461 673.069 783.461 673.356C783.461 673.644 783.694 673.877 783.981 673.877Z" fill="black"/>
<path opacity="0.8" d="M777.942 674.92C778.23 674.92 778.463 674.687 778.463 674.399C778.463 674.112 778.23 673.879 777.942 673.879C777.655 673.879 777.422 674.112 777.422 674.399C777.422 674.687 777.655 674.92 777.942 674.92Z" fill="black"/>
<path opacity="0.8" d="M771.391 675.439C771.679 675.439 771.912 675.206 771.912 674.919C771.912 674.631 771.679 674.398 771.391 674.398C771.104 674.398 770.871 674.631 770.871 674.919C770.871 675.206 771.104 675.439 771.391 675.439Z" fill="black"/>
<path opacity="0.8" d="M765.431 675.439C765.718 675.439 765.951 675.206 765.951 674.919C765.951 674.631 765.718 674.398 765.431 674.398C765.143 674.398 764.91 674.631 764.91 674.919C764.91 675.206 765.143 675.439 765.431 675.439Z" fill="black"/>
</g>
<g opacity="0.8">
<path opacity="0.8" d="M792.876 673.916C793.163 673.916 793.396 673.683 793.396 673.395C793.396 673.108 793.163 672.875 792.876 672.875C792.588 672.875 792.355 673.108 792.355 673.395C792.355 673.683 792.588 673.916 792.876 673.916Z" fill="black"/>
<path opacity="0.8" d="M790.235 674.654C790.523 674.654 790.756 674.421 790.756 674.134C790.756 673.846 790.523 673.613 790.235 673.613C789.948 673.613 789.715 673.846 789.715 674.134C789.715 674.421 789.948 674.654 790.235 674.654Z" fill="black"/>
<path opacity="0.8" d="M786.97 675.697C787.257 675.697 787.49 675.464 787.49 675.177C787.49 674.889 787.257 674.656 786.97 674.656C786.682 674.656 786.449 674.889 786.449 675.177C786.449 675.464 786.682 675.697 786.97 675.697Z" fill="black"/>
<path opacity="0.8" d="M781.118 676.955C781.405 676.955 781.638 676.722 781.638 676.435C781.638 676.147 781.405 675.914 781.118 675.914C780.831 675.914 780.598 676.147 780.598 676.435C780.598 676.722 780.831 676.955 781.118 676.955Z" fill="black"/>
<path opacity="0.8" d="M774.946 677.705C775.234 677.705 775.467 677.472 775.467 677.184C775.467 676.897 775.234 676.664 774.946 676.664C774.659 676.664 774.426 676.897 774.426 677.184C774.426 677.472 774.659 677.705 774.946 677.705Z" fill="black"/>
<path opacity="0.8" d="M768.557 677.998C768.845 677.998 769.078 677.765 769.078 677.477C769.078 677.19 768.845 676.957 768.557 676.957C768.27 676.957 768.037 677.19 768.037 677.477C768.037 677.765 768.27 677.998 768.557 677.998Z" fill="black"/>
<path opacity="0.8" d="M759.384 676.736C759.671 676.736 759.904 676.503 759.904 676.216C759.904 675.928 759.671 675.695 759.384 675.695C759.096 675.695 758.863 675.928 758.863 676.216C758.863 676.503 759.096 676.736 759.384 676.736Z" fill="black"/>
<path opacity="0.8" d="M762.423 677.478C762.71 677.478 762.943 677.245 762.943 676.958C762.943 676.67 762.71 676.438 762.423 676.438C762.135 676.438 761.902 676.67 761.902 676.958C761.902 677.245 762.135 677.478 762.423 677.478Z" fill="black"/>
<path opacity="0.8" d="M753.706 675.697C753.993 675.697 754.226 675.464 754.226 675.177C754.226 674.889 753.993 674.656 753.706 674.656C753.419 674.656 753.186 674.889 753.186 675.177C753.186 675.464 753.419 675.697 753.706 675.697Z" fill="black"/>
<path opacity="0.8" d="M756.44 676.217C756.728 676.217 756.961 675.984 756.961 675.696C756.961 675.409 756.728 675.176 756.44 675.176C756.153 675.176 755.92 675.409 755.92 675.696C755.92 675.984 756.153 676.217 756.44 676.217Z" fill="black"/>
<path opacity="0.8" d="M750.71 674.654C750.997 674.654 751.23 674.421 751.23 674.134C751.23 673.846 750.997 673.613 750.71 673.613C750.422 673.613 750.189 673.846 750.189 674.134C750.189 674.421 750.422 674.654 750.71 674.654Z" fill="black"/>
<path opacity="0.8" d="M783.981 676.435C784.269 676.435 784.502 676.202 784.502 675.915C784.502 675.628 784.269 675.395 783.981 675.395C783.694 675.395 783.461 675.628 783.461 675.915C783.461 676.202 783.694 676.435 783.981 676.435Z" fill="black"/>
<path opacity="0.8" d="M777.942 677.478C778.23 677.478 778.463 677.245 778.463 676.958C778.463 676.67 778.23 676.438 777.942 676.438C777.655 676.438 777.422 676.67 777.422 676.958C777.422 677.245 777.655 677.478 777.942 677.478Z" fill="black"/>
<path opacity="0.8" d="M771.391 677.998C771.679 677.998 771.912 677.765 771.912 677.477C771.912 677.19 771.679 676.957 771.391 676.957C771.104 676.957 770.871 677.19 770.871 677.477C770.871 677.765 771.104 677.998 771.391 677.998Z" fill="black"/>
<path opacity="0.8" d="M765.431 677.998C765.718 677.998 765.951 677.765 765.951 677.477C765.951 677.19 765.718 676.957 765.431 676.957C765.143 676.957 764.91 677.19 764.91 677.477C764.91 677.765 765.143 677.998 765.431 677.998Z" fill="black"/>
</g>
<g opacity="0.8">
<path opacity="0.8" d="M792.876 676.478C793.163 676.478 793.396 676.245 793.396 675.958C793.396 675.67 793.163 675.438 792.876 675.438C792.588 675.438 792.355 675.67 792.355 675.958C792.355 676.245 792.588 676.478 792.876 676.478Z" fill="black"/>
<path opacity="0.8" d="M790.235 677.217C790.523 677.217 790.756 676.984 790.756 676.696C790.756 676.409 790.523 676.176 790.235 676.176C789.948 676.176 789.715 676.409 789.715 676.696C789.715 676.984 789.948 677.217 790.235 677.217Z" fill="black"/>
<path opacity="0.8" d="M786.97 678.26C787.257 678.26 787.49 678.027 787.49 677.739C787.49 677.452 787.257 677.219 786.97 677.219C786.682 677.219 786.449 677.452 786.449 677.739C786.449 678.027 786.682 678.26 786.97 678.26Z" fill="black"/>
<path opacity="0.8" d="M781.118 679.517C781.405 679.517 781.638 679.284 781.638 678.997C781.638 678.71 781.405 678.477 781.118 678.477C780.831 678.477 780.598 678.71 780.598 678.997C780.598 679.284 780.831 679.517 781.118 679.517Z" fill="black"/>
<path opacity="0.8" d="M774.946 680.267C775.234 680.267 775.467 680.034 775.467 679.747C775.467 679.46 775.234 679.227 774.946 679.227C774.659 679.227 774.426 679.46 774.426 679.747C774.426 680.034 774.659 680.267 774.946 680.267Z" fill="black"/>
<path opacity="0.8" d="M768.557 680.56C768.845 680.56 769.078 680.327 769.078 680.04C769.078 679.752 768.845 679.52 768.557 679.52C768.27 679.52 768.037 679.752 768.037 680.04C768.037 680.327 768.27 680.56 768.557 680.56Z" fill="black"/>
<path opacity="0.8" d="M759.384 679.299C759.671 679.299 759.904 679.066 759.904 678.778C759.904 678.491 759.671 678.258 759.384 678.258C759.096 678.258 758.863 678.491 758.863 678.778C758.863 679.066 759.096 679.299 759.384 679.299Z" fill="black"/>
<path opacity="0.8" d="M762.423 680.041C762.71 680.041 762.943 679.808 762.943 679.52C762.943 679.233 762.71 679 762.423 679C762.135 679 761.902 679.233 761.902 679.52C761.902 679.808 762.135 680.041 762.423 680.041Z" fill="black"/>
<path opacity="0.8" d="M753.706 678.26C753.993 678.26 754.226 678.027 754.226 677.739C754.226 677.452 753.993 677.219 753.706 677.219C753.419 677.219 753.186 677.452 753.186 677.739C753.186 678.027 753.419 678.26 753.706 678.26Z" fill="black"/>
<path opacity="0.8" d="M756.44 678.779C756.728 678.779 756.961 678.546 756.961 678.259C756.961 677.971 756.728 677.738 756.44 677.738C756.153 677.738 755.92 677.971 755.92 678.259C755.92 678.546 756.153 678.779 756.44 678.779Z" fill="black"/>
<path opacity="0.8" d="M750.71 677.217C750.997 677.217 751.23 676.984 751.23 676.696C751.23 676.409 750.997 676.176 750.71 676.176C750.422 676.176 750.189 676.409 750.189 676.696C750.189 676.984 750.422 677.217 750.71 677.217Z" fill="black"/>
<path opacity="0.8" d="M783.981 678.998C784.269 678.998 784.502 678.765 784.502 678.477C784.502 678.19 784.269 677.957 783.981 677.957C783.694 677.957 783.461 678.19 783.461 678.477C783.461 678.765 783.694 678.998 783.981 678.998Z" fill="black"/>
<path opacity="0.8" d="M777.942 680.041C778.23 680.041 778.463 679.808 778.463 679.52C778.463 679.233 778.23 679 777.942 679C777.655 679 777.422 679.233 777.422 679.52C777.422 679.808 777.655 680.041 777.942 680.041Z" fill="black"/>
<path opacity="0.8" d="M771.391 680.56C771.679 680.56 771.912 680.327 771.912 680.04C771.912 679.752 771.679 679.52 771.391 679.52C771.104 679.52 770.871 679.752 770.871 680.04C770.871 680.327 771.104 680.56 771.391 680.56Z" fill="black"/>
<path opacity="0.8" d="M765.431 680.56C765.718 680.56 765.951 680.327 765.951 680.04C765.951 679.752 765.718 679.52 765.431 679.52C765.143 679.52 764.91 679.752 764.91 680.04C764.91 680.327 765.143 680.56 765.431 680.56Z" fill="black"/>
</g>
<g opacity="0.8">
<path opacity="0.8" d="M792.876 679.041C793.163 679.041 793.396 678.808 793.396 678.52C793.396 678.233 793.163 678 792.876 678C792.588 678 792.355 678.233 792.355 678.52C792.355 678.808 792.588 679.041 792.876 679.041Z" fill="black"/>
<path opacity="0.8" d="M790.235 679.779C790.523 679.779 790.756 679.546 790.756 679.259C790.756 678.971 790.523 678.738 790.235 678.738C789.948 678.738 789.715 678.971 789.715 679.259C789.715 679.546 789.948 679.779 790.235 679.779Z" fill="black"/>
<path opacity="0.8" d="M786.97 680.822C787.257 680.822 787.49 680.589 787.49 680.302C787.49 680.014 787.257 679.781 786.97 679.781C786.682 679.781 786.449 680.014 786.449 680.302C786.449 680.589 786.682 680.822 786.97 680.822Z" fill="black"/>
<path opacity="0.8" d="M781.118 682.08C781.405 682.08 781.638 681.847 781.638 681.56C781.638 681.272 781.405 681.039 781.118 681.039C780.831 681.039 780.598 681.272 780.598 681.56C780.598 681.847 780.831 682.08 781.118 682.08Z" fill="black"/>
<path opacity="0.8" d="M774.946 682.83C775.234 682.83 775.467 682.597 775.467 682.31C775.467 682.022 775.234 681.789 774.946 681.789C774.659 681.789 774.426 682.022 774.426 682.31C774.426 682.597 774.659 682.83 774.946 682.83Z" fill="black"/>
<path opacity="0.8" d="M768.557 683.123C768.845 683.123 769.078 682.89 769.078 682.602C769.078 682.315 768.845 682.082 768.557 682.082C768.27 682.082 768.037 682.315 768.037 682.602C768.037 682.89 768.27 683.123 768.557 683.123Z" fill="black"/>
<path opacity="0.8" d="M759.384 681.861C759.671 681.861 759.904 681.628 759.904 681.341C759.904 681.053 759.671 680.82 759.384 680.82C759.096 680.82 758.863 681.053 758.863 681.341C758.863 681.628 759.096 681.861 759.384 681.861Z" fill="black"/>
<path opacity="0.8" d="M762.423 682.603C762.71 682.603 762.943 682.37 762.943 682.083C762.943 681.796 762.71 681.562 762.423 681.562C762.135 681.562 761.902 681.796 761.902 682.083C761.902 682.37 762.135 682.603 762.423 682.603Z" fill="black"/>
<path opacity="0.8" d="M753.706 680.822C753.993 680.822 754.226 680.589 754.226 680.302C754.226 680.014 753.993 679.781 753.706 679.781C753.419 679.781 753.186 680.014 753.186 680.302C753.186 680.589 753.419 680.822 753.706 680.822Z" fill="black"/>
<path opacity="0.8" d="M756.44 681.342C756.728 681.342 756.961 681.109 756.961 680.821C756.961 680.534 756.728 680.301 756.44 680.301C756.153 680.301 755.92 680.534 755.92 680.821C755.92 681.109 756.153 681.342 756.44 681.342Z" fill="black"/>
<path opacity="0.8" d="M750.71 679.779C750.997 679.779 751.23 679.546 751.23 679.259C751.23 678.971 750.997 678.738 750.71 678.738C750.422 678.738 750.189 678.971 750.189 679.259C750.189 679.546 750.422 679.779 750.71 679.779Z" fill="black"/>
<path opacity="0.8" d="M783.981 681.56C784.269 681.56 784.502 681.327 784.502 681.04C784.502 680.752 784.269 680.52 783.981 680.52C783.694 680.52 783.461 680.752 783.461 681.04C783.461 681.327 783.694 681.56 783.981 681.56Z" fill="black"/>
<path opacity="0.8" d="M777.942 682.603C778.23 682.603 778.463 682.37 778.463 682.083C778.463 681.796 778.23 681.562 777.942 681.562C777.655 681.562 777.422 681.796 777.422 682.083C777.422 682.37 777.655 682.603 777.942 682.603Z" fill="black"/>
<path opacity="0.8" d="M771.391 683.123C771.679 683.123 771.912 682.89 771.912 682.602C771.912 682.315 771.679 682.082 771.391 682.082C771.104 682.082 770.871 682.315 770.871 682.602C770.871 682.89 771.104 683.123 771.391 683.123Z" fill="black"/>
<path opacity="0.8" d="M765.431 683.123C765.718 683.123 765.951 682.89 765.951 682.602C765.951 682.315 765.718 682.082 765.431 682.082C765.143 682.082 764.91 682.315 764.91 682.602C764.91 682.89 765.143 683.123 765.431 683.123Z" fill="black"/>
</g>
</g>
<defs>
<clipPath id="clip0">
<rect width="820" height="725.174" fill="white"/>
</clipPath>
</defs>
</svg>
