<svg width="83" height="19" viewBox="0 0 83 19" fill="none" xmlns="http://www.w3.org/2000/svg">
<g style="mix-blend-mode:hue" filter="url(#filter0_i)">
<g style="mix-blend-mode:hue">
<path d="M4.14759 18.7368L0 1.36842H3.99478L6.43964 15.0789L9.01552 1.36842H12.4209L15.0623 15.0526L17.4635 1.36842H21.3273L17.1579 18.7368H13.0758L11.3731 10.3158L10.7182 6.07895H10.6746L10.0415 10.3158L8.36063 18.7368H4.14759ZM26.6173 19C24.7983 19 23.3576 18.4036 22.2951 17.2105C21.2473 16.0175 20.7234 14.3333 20.7234 12.1579C20.7234 10.7193 20.9635 9.49118 21.4438 8.47368C21.9386 7.43859 22.608 6.65789 23.4521 6.13158C24.3107 5.58772 25.3076 5.31579 26.4427 5.31579C27.5925 5.31579 28.5675 5.58772 29.3678 6.13158C30.1828 6.65789 30.8014 7.39474 31.2233 8.34211C31.6454 9.27197 31.8564 10.3421 31.8564 11.5526C31.8564 11.8859 31.8419 12.2105 31.8127 12.5263C31.7982 12.8246 31.7837 13.0789 31.7691 13.2895H24.3253C24.4272 14.2017 24.6745 14.8596 25.0675 15.2632C25.4604 15.6491 25.9771 15.8421 26.6173 15.8421C27.1704 15.8421 27.607 15.7105 27.9271 15.4474C28.2619 15.1842 28.5093 14.8158 28.6693 14.3421L31.6381 15.5263C31.4344 16.2807 31.0779 16.9211 30.5685 17.4474C30.0737 17.9562 29.477 18.3421 28.7785 18.6053C28.0945 18.8684 27.3742 19 26.6173 19ZM26.4427 8.44737C25.2639 8.44737 24.5654 9.26316 24.3471 10.8947H28.3419C28.1819 9.26316 27.5488 8.44737 26.4427 8.44737ZM40.5031 19C39.6153 19 38.8586 18.7105 38.2329 18.1316C37.607 17.5526 37.1559 16.7895 36.8795 15.8421L36.7485 18.7368H33.4959V0H37.2069V7.84211C37.4979 7.08772 37.9273 6.48246 38.4948 6.02632C39.0769 5.55263 39.79 5.31579 40.6341 5.31579C41.4782 5.31579 42.2277 5.58772 42.8825 6.13158C43.5374 6.67543 44.054 7.46491 44.4324 8.5C44.8107 9.5175 45 10.7543 45 12.2105C45 14.3509 44.5852 16.0175 43.7557 17.2105C42.9262 18.4036 41.8419 19 40.5031 19ZM39.2152 15.7105C39.8555 15.7105 40.3575 15.4299 40.7214 14.8684C41.0852 14.2895 41.2672 13.3859 41.2672 12.1579C41.2672 10.9299 41.0852 10.0351 40.7214 9.47368C40.3575 8.89474 39.8555 8.60526 39.2152 8.60526C38.5894 8.60526 38.0946 8.92105 37.7308 9.55263C37.3815 10.1842 37.2069 11.0614 37.2069 12.1842C37.2069 13.3246 37.3887 14.2017 37.7526 14.8158C38.1164 15.4122 38.604 15.7105 39.2152 15.7105Z" fill="#76717C"/>
</g>
<g style="mix-blend-mode:hue">
<path d="M51.1494 0C53.4189 0 55.1539 0.81293 56.3544 2.43881C57.5697 4.06468 58.1773 6.37114 58.1773 9.35821C58.1773 12.3453 57.5697 14.6517 56.3544 16.2776C55.1539 17.9035 53.4189 18.7164 51.1494 18.7164H45V0H51.1494ZM50.776 15.0298C52.0059 15.0298 52.8991 14.5573 53.4554 13.6119C54.0264 12.6478 54.3119 11.2298 54.3119 9.35821C54.3119 7.48657 54.0264 6.07811 53.4554 5.13284C52.8991 4.16866 52.0059 3.68657 50.776 3.68657H48.7775V15.0298H50.776ZM65.4199 19C63.5896 19 62.1401 18.3573 61.0713 17.0716C60.0172 15.786 59.4901 13.9711 59.4901 11.6269C59.4901 10.0767 59.7317 8.75319 60.2148 7.65672C60.7126 6.54129 61.3862 5.7 62.2353 5.13284C63.0992 4.54677 64.1021 4.25373 65.2442 4.25373C66.4008 4.25373 67.3818 4.54677 68.1871 5.13284C69.007 5.7 69.6292 6.49403 70.0539 7.51493C70.4785 8.51696 70.6908 9.67015 70.6908 10.9746C70.6908 11.3338 70.6762 11.6836 70.6468 12.0239C70.6322 12.3453 70.6175 12.6194 70.6029 12.8463H63.1138C63.2163 13.8293 63.4652 14.5383 63.8605 14.9731C64.2559 15.389 64.7756 15.597 65.4199 15.597C65.9763 15.597 66.4155 15.4552 66.7376 15.1716C67.0744 14.8881 67.3232 14.491 67.4843 13.9806L70.4711 15.2567C70.2661 16.0696 69.9075 16.7597 69.395 17.3269C68.8972 17.8752 68.2969 18.291 67.5941 18.5746C66.9059 18.8582 66.1812 19 65.4199 19ZM65.2442 7.62836C64.0582 7.62836 63.3554 8.50746 63.1358 10.2657H67.1549C66.9938 8.50746 66.3569 7.62836 65.2442 7.62836ZM79.1347 4.53731H83L79.0468 18.7164H74.5885L70.6353 4.53731H74.5665L76.8286 15.3418L79.1347 4.53731Z" fill="#9374BB"/>
</g>
</g>
<defs>
<filter id="filter0_i" x="0" y="0" width="83" height="23" filterUnits="userSpaceOnUse" color-interpolation-filters="sRGB">
<feFlood flood-opacity="0" result="BackgroundImageFix"/>
<feBlend mode="normal" in="SourceGraphic" in2="BackgroundImageFix" result="shape"/>
<feColorMatrix in="SourceAlpha" type="matrix" values="0 0 0 0 0 0 0 0 0 0 0 0 0 0 0 0 0 0 127 0" result="hardAlpha"/>
<feOffset dy="4"/>
<feGaussianBlur stdDeviation="2"/>
<feComposite in2="hardAlpha" operator="arithmetic" k2="-1" k3="1"/>
<feColorMatrix type="matrix" values="0 0 0 0 0 0 0 0 0 0 0 0 0 0 0 0 0 0 0.25 0"/>
<feBlend mode="normal" in2="shape" result="effect1_innerShadow"/>
</filter>
</defs>
</svg>
